<svg width="2027" height="2026" viewBox="0 0 2027 2026" fill="none" xmlns="http://www.w3.org/2000/svg">
<circle cx="1013" cy="1013" r="1000" fill="#A54551"/>
<path d="M255.144 1138.48C160.835 1138.48 98.8236 1089.39 98.8236 999.817C98.8236 910.245 160.835 861.152 255.144 861.152C314.141 861.152 358.497 880.962 384.335 921.011L405.436 910.245C377.014 866.751 326.63 840.051 255.575 840.051C142.748 840.051 76 902.924 76 999.817C76 1096.71 142.748 1159.58 254.714 1159.58C326.63 1159.58 377.014 1132.88 405.436 1089.39L384.335 1078.62C358.927 1118.67 314.141 1138.48 255.144 1138.48ZM800.207 1150.54L692.978 1029.1C751.976 1024.79 790.733 992.065 790.733 939.097C790.733 882.684 745.947 849.095 678.768 849.095H481.107V1150.54H503.93V1029.53H665.418L770.923 1150.54H800.207ZM503.499 1008.86V869.765H677.476C733.028 869.765 767.909 894.311 767.909 939.097C767.909 984.314 733.028 1008.86 677.476 1008.86H503.499ZM900.07 1129.44V1007.57H1120.55V986.467H900.07V869.765H1157.16V849.095H877.678V1150.54H1161.46V1129.44H900.07ZM1264.68 1129.44V1007.57H1485.16V986.467H1264.68V869.765H1521.77V849.095H1242.28V1150.54H1526.07V1129.44H1264.68ZM1747.28 849.095H1606.89V1150.54H1747.28C1856.24 1150.54 1926 1091.97 1926 999.817C1926 907.661 1856.24 849.095 1747.28 849.095ZM1746 1129.44H1629.29V869.765H1746C1837.29 869.765 1903.17 915.412 1903.17 999.817C1903.17 1084.22 1837.29 1129.44 1746 1129.44Z" fill="white"/>
</svg>
