<svg width="441" height="505" viewBox="0 0 441 505" fill="none" xmlns="http://www.w3.org/2000/svg">
<path fill-rule="evenodd" clip-rule="evenodd" d="M185.86 11.4035C184.924 5.87878 192.703 3.64568 194.84 8.82537L199.008 18.9251C199.138 19.2404 199.237 19.5596 199.308 19.8799C209.303 17.4701 219.372 16.2566 229.342 16.1626C229.332 15.8328 229.35 15.4969 229.4 15.1574L230.99 4.37473C231.807 -1.16875 239.895 -0.888924 240.327 4.69779L241.168 15.5646C241.195 15.908 241.19 16.2456 241.158 16.575C251.297 17.3794 261.261 19.3343 270.864 22.3564C270.956 22.0396 271.077 21.726 271.23 21.4186L276.083 11.636C278.574 6.61643 286.179 9.38179 284.864 14.8287L282.301 25.4443C282.22 25.7777 282.112 26.096 281.98 26.3979C291.31 30.2606 300.202 35.1668 308.467 41.0323C308.648 40.7694 308.855 40.5178 309.087 40.2806L316.726 32.4764C320.645 28.4721 327.024 33.4523 324.09 38.2262L318.372 47.5297C318.202 47.8068 318.012 48.0633 317.806 48.2988C326.204 55.4496 333.78 63.6885 340.294 72.9084C340.278 72.0188 340.272 71.1354 340.267 70.2672L340.267 70.1136C340.247 65.6926 344.245 62.2944 348.775 61.6609C350.94 61.3737 353.139 61.8129 355.028 62.9097C356.917 64.0065 358.389 65.6991 359.213 67.722C361.791 74.2811 362.226 81.4879 360.457 88.3096C360.312 88.9235 360.142 89.537 359.95 90.232L359.949 90.2346L359.948 90.2377L359.946 90.2447C359.874 90.5077 359.798 90.7824 359.719 91.0732C366.34 94.8055 371.532 100.634 374.477 107.642C376.843 113.285 374.599 119.048 369.384 121.336C366.697 122.491 364.066 122.187 361.658 120.925C363.787 130.303 364.869 139.737 364.967 149.085C365.247 149.084 365.531 149.104 365.817 149.146L376.599 150.736C382.142 151.553 381.862 159.641 376.275 160.073L365.41 160.914C365.124 160.936 364.842 160.936 364.565 160.917C363.769 171.071 361.819 181.049 358.799 190.666C359.055 190.75 359.307 190.853 359.556 190.976L369.337 195.829C374.357 198.319 371.591 205.925 366.145 204.609L355.53 202.046C355.263 201.982 355.005 201.9 354.758 201.801C350.894 211.148 345.983 220.055 340.109 228.333C340.312 228.484 340.507 228.651 340.694 228.833L348.497 236.471C352.501 240.391 347.521 246.77 342.747 243.835L333.445 238.118C333.229 237.985 333.025 237.841 332.834 237.685C326.324 245.33 318.914 252.294 310.682 258.395C310.821 258.595 310.95 258.806 311.067 259.029L316.117 268.685C318.714 273.65 312.007 278.177 308.373 273.912L301.307 265.616C301.143 265.424 300.995 265.224 300.862 265.019C293.907 269.274 286.463 272.954 278.571 275.97C276.844 276.629 275.113 277.251 273.377 277.835C273.447 278.065 273.503 278.301 273.544 278.545L275.368 289.315C276.304 294.84 268.525 297.073 266.388 291.893L262.22 281.795C262.128 281.572 262.051 281.346 261.99 281.12C251.972 283.539 241.88 284.756 231.887 284.848C231.882 285.084 231.863 285.323 231.827 285.564L230.238 296.344C229.42 301.888 221.333 301.608 220.9 296.021L220.06 285.157C220.041 284.912 220.038 284.67 220.049 284.432C209.888 283.622 199.903 281.657 190.282 278.62C190.203 278.85 190.108 279.078 189.997 279.302L185.144 289.083C182.654 294.102 175.049 291.337 176.364 285.89L178.927 275.277C178.986 275.03 179.061 274.791 179.15 274.561C169.806 270.682 160.903 265.756 152.631 259.867C152.482 260.066 152.318 260.257 152.14 260.44L144.502 268.242C140.582 272.247 134.204 267.266 137.138 262.493L142.855 253.191C142.988 252.974 143.134 252.769 143.29 252.577C135.657 246.058 128.706 238.638 122.619 230.398C122.407 230.549 122.183 230.688 121.945 230.812L112.289 235.863C107.324 238.46 102.796 231.752 107.062 228.119L115.357 221.052C115.567 220.874 115.786 220.713 116.012 220.571C112.68 215.107 109.703 209.342 107.124 203.297L88.8105 227.574C86.3829 230.792 81.6486 231.136 79.1133 228.002C61.758 206.548 59.6131 178.174 61.3143 160.839C61.7234 156.671 66.0872 154.373 69.9461 156.001L97.3732 167.572C96.687 162.248 96.3277 156.927 96.284 151.634C95.9967 151.636 95.705 151.616 95.4106 151.573L84.6293 149.983C79.0858 149.166 79.3657 141.078 84.9524 140.646L95.8178 139.805C96.1206 139.782 96.4189 139.782 96.7111 139.805C97.5287 129.66 99.498 119.692 102.536 110.087C102.244 109.998 101.956 109.884 101.672 109.743L91.8906 104.89C86.871 102.399 89.6363 94.7941 95.0832 96.1094L105.698 98.6724C106.011 98.748 106.31 98.8478 106.595 98.9693C110.473 89.6424 115.393 80.7553 121.273 72.4967C121.015 72.3177 120.768 72.1144 120.535 71.8862L112.731 64.2474C108.727 60.3278 113.707 53.9492 118.481 56.8832L127.784 62.6011C128.061 62.7716 128.318 62.9616 128.554 63.1682C135.063 55.5471 142.47 48.606 150.694 42.5251C150.496 42.2682 150.318 41.9902 150.162 41.6918L145.111 32.0342C142.514 27.069 149.221 22.5416 152.855 26.8072L159.922 35.104C160.144 35.3648 160.338 35.639 160.503 35.9235C167.427 31.6971 174.833 28.0408 182.683 25.0411C184.43 24.3734 186.183 23.7445 187.94 23.1541C187.828 22.8428 187.742 22.5166 187.685 22.1771L185.86 11.4035ZM122.578 191.794C145.381 251.469 212.243 281.359 271.917 258.556C331.031 235.966 360.917 170.142 339.306 110.898C332.139 116.918 323.539 122.372 313.54 126.037C291.098 134.262 273.964 137.845 259.503 139.262C243.061 161.873 215.106 171.306 201.581 173.248L203.304 139.39C194.497 139.756 185.034 140.916 173.968 143.759C153.184 149.098 133.823 157.807 116.251 167.92C117.478 175.924 119.569 183.922 122.578 191.794ZM152.058 194.706C146.516 195.692 141.225 191.999 140.238 186.458C139.252 180.916 142.945 175.624 148.487 174.638C154.028 173.652 159.32 177.345 160.306 182.887C161.292 188.428 157.599 193.72 152.058 194.706ZM199.041 195.939C195.424 196.582 191.971 194.172 191.327 190.555C190.683 186.939 193.093 183.485 196.71 182.841C200.327 182.198 203.781 184.608 204.424 188.225C205.068 191.841 202.658 195.295 199.041 195.939ZM258.703 193.606C255.087 194.249 251.633 191.839 250.989 188.222C250.346 184.606 252.756 181.152 256.373 180.508C259.989 179.865 263.443 182.275 264.087 185.892C264.73 189.508 262.32 192.962 258.703 193.606ZM271.127 225.468C271.771 229.085 275.224 231.495 278.841 230.852C282.458 230.208 284.868 226.755 284.224 223.138C283.581 219.521 280.127 217.111 276.51 217.754C272.894 218.398 270.483 221.852 271.127 225.468ZM201.404 241.705C197.788 242.349 194.334 239.939 193.69 236.322C193.047 232.705 195.457 229.251 199.074 228.608C202.69 227.964 206.144 230.374 206.788 233.991C207.431 237.608 205.021 241.062 201.404 241.705ZM165.507 213.592C166.151 217.208 169.605 219.619 173.221 218.975C176.838 218.331 179.248 214.878 178.605 211.261C177.961 207.644 174.507 205.234 170.891 205.877C167.274 206.521 164.864 209.975 165.507 213.592ZM230.452 215.735C226.836 216.378 223.382 213.968 222.738 210.351C222.095 206.734 224.505 203.281 228.122 202.637C231.738 201.994 235.192 204.404 235.836 208.021C236.479 211.637 234.069 215.091 230.452 215.735ZM287.232 188.525C288.218 194.067 293.51 197.759 299.052 196.773C304.593 195.787 308.286 190.495 307.3 184.954C306.314 179.412 301.022 175.719 295.481 176.706C289.939 177.692 286.246 182.983 287.232 188.525ZM230.185 240.181C231.171 245.723 236.463 249.416 242.004 248.43C247.546 247.443 251.239 242.152 250.252 236.61C249.266 231.069 243.975 227.376 238.433 228.362C232.892 229.348 229.199 234.64 230.185 240.181ZM308.11 83.8049C310.149 92.7664 304.86 101.611 296.295 103.561C287.731 105.51 279.134 99.8255 277.095 90.864C275.055 81.9024 280.345 73.0575 288.909 71.1081C297.474 69.1588 306.07 74.8433 308.11 83.8049Z" fill="url(#paint0_linear_928_1227)"/>
<path d="M296.945 95.7732C300.802 94.8953 303.108 90.5753 302.095 86.1242C301.082 81.6732 297.133 78.7766 293.276 79.6545C289.419 80.5324 287.113 84.8524 288.126 89.3035C289.139 93.7546 293.088 96.6512 296.945 95.7732Z" fill="#4A98EA"/>
<path fill-rule="evenodd" clip-rule="evenodd" d="M246.995 373.846C246.995 349.829 266.471 330.359 290.495 330.359V351.601C278.206 351.601 268.243 361.56 268.243 373.846V373.847H290.495V395.089H268.243V460.82H246.995V373.846ZM237.443 330.99C213.419 330.99 193.944 350.459 193.943 374.476L193.943 461.449H215.19V374.477C215.19 362.191 225.154 352.232 237.443 352.232V330.99ZM44.335 440.207C56.6242 440.207 66.5866 430.248 66.5866 417.962C66.5866 405.677 56.6242 395.717 44.335 395.717C32.0457 395.717 22.0833 405.677 22.0833 417.962C22.0833 430.248 32.0457 440.207 44.335 440.207ZM44.335 461.449C36.2038 461.449 28.5936 459.219 22.0833 455.336V504.624H0.835449V417.962C0.835449 393.945 20.3109 374.476 44.335 374.476C68.3591 374.476 87.8345 393.945 87.8345 417.962C87.8345 441.979 68.3591 461.449 44.335 461.449ZM184.387 374.476H163.139V417.962C163.138 430.247 153.176 440.206 140.887 440.206C128.598 440.206 118.636 430.247 118.636 417.962V417.96V374.476H97.3879V417.96V417.962C97.3884 441.978 116.864 461.448 140.887 461.448C164.912 461.448 184.387 441.978 184.387 417.961L184.387 374.476ZM215.191 374.477V395.718H237.443V374.477H215.191ZM377.382 389.999C381.371 394.932 384.203 400.642 385.732 406.711L387.048 416.951C387.049 417.078 387.05 417.204 387.05 417.331L387.05 417.333C387.05 420.996 386.596 424.554 385.743 427.953H377.104V427.954H323.991C327.762 434.88 335.107 439.58 343.549 439.58C349.213 439.58 354.383 437.465 358.311 433.982L372.403 449.877C364.955 456.475 355.47 460.322 345.529 460.774C335.588 461.227 325.792 458.258 317.775 452.363C309.759 446.469 304.007 438.004 301.478 428.382C298.95 418.76 299.798 408.562 303.881 399.49C307.964 390.417 315.036 383.018 323.916 378.528C332.796 374.038 342.948 372.727 352.678 374.814C362.408 376.902 371.127 382.261 377.382 389.999ZM323.991 406.713C327.762 399.787 335.107 395.087 343.549 395.087C351.992 395.087 359.336 399.787 363.108 406.713H323.991ZM417.849 417.959C417.849 405.697 427.773 395.753 440.029 395.714V374.473C416.038 374.511 396.602 393.966 396.602 417.959L417.849 417.959ZM396.602 461.447H417.849V417.961L396.602 417.961V461.447Z" fill="black"/>
<defs>
<linearGradient id="paint0_linear_928_1227" x1="248.152" y1="0.359369" x2="379.496" y2="214.035" gradientUnits="userSpaceOnUse">
<stop offset="0.0677083" stop-color="#874FFF"/>
<stop offset="0.463542" stop-color="#36AFE2"/>
<stop offset="0.859375" stop-color="#41FF54"/>
</linearGradient>
</defs>
</svg>
