<svg width="205" height="205" viewBox="0 0 205.164 205.164" fill="none" xmlns="http://www.w3.org/2000/svg">
<rect width="205.164" height="205.164" rx="32" fill="#FF7B1A"/>
<path d="M537.482 180.801H576.107L593.741 180.801L601.595 180.801L606.083 180.801C603.839 180.801 609.93 181.324 612.495 180.801C615.059 180.278 614.418 180.801 616.983 180.801C621.471 180.995 624.27 180.105 621.471 180.801C618.672 181.357 628.012 180.523 623.394 180.801H625.019H691.354V176.42C686.876 176.002 683.307 175.446 680.648 174.751C677.85 174.055 675.75 172.873 674.351 171.204C672.951 169.535 672.042 167.24 671.622 164.319C671.202 161.26 670.992 157.226 670.992 152.219V49.1591C670.992 44.9866 671.202 41.6486 671.622 39.1451C672.042 36.5025 672.951 34.4163 674.351 32.8864C675.75 31.3565 677.85 30.2438 680.648 29.5484C683.307 28.853 686.876 28.2967 691.354 27.8794V23.0811H625.229C613.473 23.0811 602.977 24.6805 593.741 27.8794C584.364 30.9392 577.437 35.1117 572.958 40.3968C570.02 43.5957 567.85 47.351 566.451 51.6625C565.051 55.835 564.352 60.3552 564.352 65.2231C564.352 76.0715 567.78 84.6251 574.638 90.8839C581.355 97.1426 592.341 101.802 607.596 104.862L558.264 165.363C554.905 169.257 551.756 171.969 548.817 173.499C545.739 175.029 541.96 176.002 537.482 176.42V180.801Z" fill="black" transform="translate(-511.836, 0)"/>
</svg>
