<svg xmlns="http://www.w3.org/2000/svg" viewBox="0 0 501.6 501.97"><defs><style>.cls-1{fill:#333;}.cls-2{fill:#4d4d4d;}.cls-3{fill:#fff;}</style></defs><title>Asset 2</title><g id="Layer_2" data-name="Layer 2"><g id="Layer_2-2" data-name="Layer 2"><circle class="cls-1" cx="250.8" cy="251.17" r="250.8"/><path class="cls-2" d="M254.6.17c-5.8-.2,3.1.3-3.8-.1A17,17,0,0,1,254.6.17Z"/><path class="cls-2" d="M261.5.47c1.2.2,5.3.5,2,.5C263.2.77,261.1.57,261.5.47Z"/><path class="cls-2" d="M364.7,28.87a14.68,14.68,0,0,1,1.7.9c-1.2-.6-2.4-1-3.3-1.5C364.3,28.77,364.1,28.57,364.7,28.87Z"/><path class="cls-2" d="M388.4,42.67c-.4-.1-5.5-3.1-8.5-4.9Z"/><path class="cls-2" d="M408.8,58.17c1.6,1.5,1.2,1.1-1.2-.7C407.5,57.27,408.3,57.87,408.8,58.17Z"/><path class="cls-2" d="M410.4,59.17c1.6,1.4,2.3,2.2,3,2.9C413.4,62,409.7,58.87,410.4,59.17Z"/><path class="cls-2" d="M448.4,99.47c.8,1.1,2.6,3.3,3.3,4.4C450.9,102.77,447.7,98.77,448.4,99.47Z"/><path class="cls-2" d="M463.2,120.67c.4.7.6,1,1.1,1.8.8,1.3-.2,0-.8-1.1Z"/><polygon class="cls-2" points="309.4 493.87 312.1 493.17 311.7 493.37 309.4 493.87"/><path class="cls-2" d="M111.9,459c-2.4-1.4-1.5-1.2-1.9-1.5C112.1,459,109.1,457.17,111.9,459Z"/><polygon class="cls-2" points="35.7 379.07 36.1 379.77 35.8 379.67 35.7 379.07"/><path class="cls-3" d="M481,314.07c.2-.6.2-.9,0,0Z"/><path class="cls-3" d="M87.2,424.57a1.38,1.38,0,0,0-.4-.3,4.05,4.05,0,0,0-.9-.5Z"/><path class="cls-3" d="M40.1,361.47c-.1-.2-.1-.3-.2-.4S39.7,361,40.1,361.47Z"/><path class="cls-3" d="M252.7,489.27c.7,0,1.1-.1,1.3-.1A7.17,7.17,0,0,0,252.7,489.27Z"/><path class="cls-3" d="M475.4,171.87a1,1,0,0,1,.1.3,2.35,2.35,0,0,1-.2-.8Z"/><path class="cls-3" d="M476,173.27c.5,1.7-.3-.4-.6-1.1.5,1.8,1.2,3.6,1.9,5.5C477.5,177.57,476.2,174.17,476,173.27Z"/><path class="cls-3" d="M281.7,15.77l.8.1A2,2,0,0,1,281.7,15.77Z"/><path class="cls-3" d="M245.2,482.17h0Z"/><path class="cls-3" d="M322,24.47l.5-.1C322.1,24.37,322,24.47,322,24.47Z"/><path class="cls-3" d="M85.9,423.67l-.5-.3C85.6,423.47,85.7,423.57,85.9,423.67Z"/><path class="cls-3" d="M16.9,292.57c.1,0,.1-.2.1-.4V292Z"/><path class="cls-3" d="M204.3,21.07a.31.31,0,0,1-.2-.1,7.84,7.84,0,0,0-1.4.5C203.5,21.27,204,21.17,204.3,21.07Z"/><path class="cls-3" d="M21.3,193.57v-.3c-.4,1.6-1.8,6-2.9,11.6l.2.4C19.2,201.27,20.4,197.47,21.3,193.57Z"/><path class="cls-3" d="M75.4,101.57a71.63,71.63,0,0,0-6.9,7.7c1.2-1.7,2.4-3.3,3.6-4.9s2.5-2.9,3.7-4.3c2.5-2.7,4.8-5.3,7-7.7,4.3-5,8.9-8.8,13.2-12.8a131.2,131.2,0,0,1,13.3-11.2c2.4-1.8,4.8-3.7,7.4-5.6a93.13,93.13,0,0,1,8.3-5.9l-1.3.9c1.8-1,3-2.1,8.8-5.7,1.5-.9,3.2-2,5.3-3.3a49.24,49.24,0,0,1,7.7-4c3-1.4,6.5-3,10.6-4.9a96.35,96.35,0,0,1,14.3-5.3v.1a28.15,28.15,0,0,1,4.5-1.6l-7.5,2.4c4.4-1.8,8.2-3.4,14.2-5.6a4.59,4.59,0,0,1,1.9-.3l15-4,4.7-.8c4.6-1.2,2.4-1.4,15-3-4.8.2,6.2-1.3,4.6-1.3.7-.1,2.1-.2,3.3-.3,7.5-.8,21.8-1.4,25.3-1.9l-15.9.2c-8.5-.3-17.8,1.3-21.9,1.5,10.6-1.5,2.8-.5.7-.3l-.7.4c-6.4.8-6.5.5-9.7.9a.31.31,0,0,1,.2.1l.4-.1c.3,0,.1.1-.2.2.1.1-.2.1-1.9.6l.3-.1c-2.6.7-7.1,1.8-9.1,2.3l-.1-.3c-1.1.4-3.6,1.1-6.9,1.9-1.6.4-3.4.8-5.3,1.3s-3.8,1.3-5.8,1.9c-3.9,1.3-7.9,2.6-11.3,3.7q-2.55.9-4.5,1.5a22,22,0,0,0-3,1.4c-5.9,2.6-13.2,6.1-20.3,10-11.1,6.6-5.7,3-11.4,6.2-7,4.1,1.6-.6-1.2,1.1l-4.3,2.4c-1.4.8-2.7,1.8-4,2.7,4.5-3.4,2-1.7,1.1-1.2-6.7,5.1-17.9,12.3-19.2,14.8-8.6,7.4-8.7,7.3-12.4,10.6,1.3-1,3.7-3.1,3.8-3.1-3.5,2.9-1.6,1.5-.2.3-1.2,1.3-3.7,3.2-6.3,5.9s-5.5,5.8-8.4,8.8c-6,5.8-10.5,12-10.7,12.8l-.1-.1c-.6,1.6,1.3-.2-1.4,3.8l-2.1,2.5-2.8,4c-2.1,2.5-1.2,1.2-1.3,1.1-2.2,3.3-4.5,7.4-7.1,11.6s-5.6,8.5-7.5,12.9c.9-1.4,1.8-2.9,2.8-4.3l3.2-4c-1.1,1.7-2.5,3.7-3.7,5.9l-3.5,6.7c-2.2,4.3-4,7.9-4.2,8.7-.8,1.4-1.7,2.8-2.4,4.2-6.3,14.9-3.6,10.7-6,16.7a54,54,0,0,0-2.9,7.6,53.19,53.19,0,0,1,2.5-7.7c-.7,1.9-1.4,3.5-1.9,4.9s-.8,2.8-1.2,4.1c-.8,2.5-1.5,4.8-2.4,8v.1a2.19,2.19,0,0,1,.3-.8l-.3,1.1c0,1-1,5.1-2.3,10.7-.6,4-1.1,7.6-1.7,11.8-.3,2.1-.7,4.3-1.1,6.8-.2,1.2-.4,2.6-.7,4-.1,1.4-.2,2.9-.4,4.6l.3,3.3-.8,9.7h-.4c.3-4.8.4-11.7,1-18.8,1.1-7.2,2.2-14.6,3.1-20.7l-.1-.2c-1.1,7.2-2.3,15.4-3,20.2-.6,2.3-1,8.3-1.1,3.9l.1,4.5c-.5,12.2-1.1,18.3-.6,24.5.1,3.1.2,6.3.4,10.3.1,2,.2,4.2.2,6.7.2,2.5.7,5.2,1.1,8.4l-.2-2.2c.9,5,1.7,9.9,1.6,11.4.8,7.6,3.2,15.1,4.7,22,.9,3.4,1.4,6.8,2.5,9.8.9,2.9,1.8,5.6,2.6,8.1l1.1,1.9c1.1,3,2.2,7.8,3.3,9.1.9,2.1,2.1,4.1,3.1,6.2,1.9,4,3.3,6.3,5.2,11h0a3.55,3.55,0,0,0,.4.9v-.1c2,4.6,2.2,4.4,2.4,4.5s.4.3,3.3,5.3c1.6,3.3,2.6,3.2,5.4,8l2.4,5.1c2.8,4.2,4.7,6.5,6.9,9.3s4.6,6.1,9.4,11.6c4.6,5.3,6.5,8.2,3,5.1,4.7,4.4,2.2,1.9,8.2,8,.7,1.1.1.5-1.3-.8,2.4,2.9,3.3,3.7,4.1,4.2s1.3,1,3.5,2.9a26.07,26.07,0,0,1,4.8,2.8l-1.5-1.6c4.7,3.8,9.3,8.5,14.9,12.6h-.3l6,4.4.2.5c2.9,2,5.6,4.3,8.6,6.2l-1.2-.8c2.1,1.3,9.2,5.4,13.1,8h-.2a90.07,90.07,0,0,0,8.2,5c2.8,1.3,5.6,2.6,8.5,4s5.8,2.7,8.9,4.1,6.5,2.4,10.1,3.8l-2-.4c4.8,2.1,1.5,0,7.4,2.3l.2.5c5.4,1.3,6.6,2.8,10.3,3.8l-1.6-.9,6.9,1.9c7.6,2.1,4.5,1.8,3.4,1.8l5.3,1,.9.7c4,.4,3.8,1.3,10.7,2,.5.3-1.2.1,1.1.5l11.4,1.1-6.8-.8.9-.5c7.1.5,9.5,1.8,14.6,1.9a20.18,20.18,0,0,1-3.5-.1c8.3.5,8.7.6,13.4,1.1-1.5-.2-3.7-.5-.3-.4,2.5.1,1.3.3,3.7.5a15.21,15.21,0,0,1,4.2-.3c2.2,0,5.1.2,7.8.1-.1.1-.2.1-.5.2a39.7,39.7,0,0,1,4.5-.3l-1.4.6,4.6-.7c3.1,0,7.6-.6,7.2-.3l-1.7.2c7.8,0,15.5-1.4,23.2-2.6l.4.3a56.31,56.31,0,0,1,7-1.3c2.8-.4,5.1-1.2,4.7-1.3,4.4-.7,16.8-4.6,14.4-3.2,1.9-.5,3.6-.9,5.3-1.4s3.2-1.2,4.7-1.8c3-1.2,5.9-2.3,8.8-3.4s6-2.2,9.4-3.7,6.9-3.2,11.2-5.3c6.5-1.9,22.2-11.5,32-18.3,4.7-3.6,8.9-6.8,13-9.9s7.4-6.7,11-9.9c7.4-6.3,13.6-13.9,21.6-22.8,4.9-5.3,10.1-12.7,15.4-20,2.3-3.9,4.7-7.9,6.9-11.7s4.7-7.3,6.3-10.8l1.5-4c1.2-2.3,2.6-4.9,4-7.7a55.42,55.42,0,0,0,4-9.2c2.3-6.6,5.1-13.7,7.5-20.5.8-3.6,1.2-5.3,1.3-6.1a5.07,5.07,0,0,1-.8,1.8c1.2-4,3.1-12.1,3.4-11.4l-.2,1c.1.3.9-2.7,1.7-6.4a102.53,102.53,0,0,1,1.7-10.4l-.9,2.4,1.3-7.7-.2,2.1c.4-4.2,1.2-8.1,1.3-11.8s.3-7.2.4-10.6c.3-6.7.8-12.8.4-18.8s-.4-12-.9-18.4c-1-6.4-2.1-13.2-3.6-21,.6,2,.3.5-.1-1.6-.6-2.1-1.3-4.7-1.1-5a80.78,80.78,0,0,0-2.6-11,83.07,83.07,0,0,0-3.3-9.6,3,3,0,0,1-.3-.4L473.5,167c3,6.2-3.4-7.6-.7-1.9-.6-1.8-1.3-3.6-1.9-5.4s-1.6-3.6-2.5-5.4l-5.3-11.2c-.9-1.9-1.8-3.9-2.8-5.7s-2.2-3.7-3.4-5.6c-2.3-3.7-4.6-7.5-6.9-11.3s-5.3-7.2-7.9-10.9c-2.8-3.6-5.3-7.4-8.3-10.7l-9.1-10c-1.5-1.7-3-3.3-4.5-4.9s-3.2-3-4.8-4.5l1,1.2c-6.5-5.9-14.6-13.4-20-17.3a103.39,103.39,0,0,0-14.2-9.7c-6.4-3.5-11.8-7.5-9.1-5.9-3.4-1.9-6.6-4-10.4-5.7s-8-3.6-12.8-6.1a50.17,50.17,0,0,0-5.5-2.8c-2.7-1.1-6.2-2.2-9.5-3.4-6.6-2.3-12.8-4.4-12.8-4.8H322c-6.7-2-13.2-3.6-19.9-5.2-3.3-1-6.8-1.2-10.3-1.8s-7.1-1.1-10.8-1.8h.8c-2.5-.1-5-.6-7.6-.5l-7.6.1-15.1.3,8.5,2.7,12.9,1.6c4.3.5,8.4,1.8,12.6,2.6l8.6,1.3c1.4.2,2.9.4,4.3.7l4.2,1.1,16.9,4.2c10.9,3.9,22.1,7.3,32.4,12.8,16.9,7.9,32,18.9,46.4,30.3a258.11,258.11,0,0,1,45.2,49.9,248.38,248.38,0,0,1,28.9,60.9l2.9,9.2c.8,3.3,1.5,6.7,2.3,10s1.1,7.1,1.7,10.7,1.1,7.4,1.7,11.1.5,7.6.9,11.5c.4,7.7,1.1,15.5.4,23.1-.5,7.6-.5,15.2-2.1,22.2l.4.6a69.21,69.21,0,0,1-1.8,9.4c-5.9,37.2-22.7,72.7-45.4,102.1-1.4,1.8-2.7,3.8-4.3,5.5l-4.7,5.1-9.3,10.2-10.1,9.2c-3.4,3-6.6,6.2-10.3,8.8-7.2,5.3-14.1,10.9-21.8,15.1-3.7,2.3-7.5,4.5-11.2,6.7-3.9,1.8-7.7,3.7-11.6,5.5-5.7,3.2-24.4,9.8-29.3,11.3-20.9,6.7-44,10.9-66.1,11l.8-.1a45.2,45.2,0,0,1-5.2.2l-5.2-.2c-.4-.1-.5-.1-.2-.1-2.9,0-6.3-.2-9.9-.3a74,74,0,0,1-11.3-1c-3.9-.6-7.8-1.3-11.7-1.9s-7.7-1.1-11.1-2.2l.8.2c-10.1-2.7-20.2-4.8-29.7-8.8l-7.2-2.6-3.6-1.3-3.5-1.6-13.8-6.6c-17.8-9.7-34.8-20.7-49.3-34.6-30.1-26.8-51.9-62.1-64.5-101.5-1.1-4.7-2.3-9.5-3.5-14.3-.6-2.4-1.2-4.9-1.8-7.3s-.8-5-1.2-7.6c-.8-5.1-1.6-10.2-2.4-15.5-.3-5.3-.6-10.6-.9-16-.1-2.7-.3-5.4-.4-8.1.1-2.7.3-5.4.4-8.1.3-5.4.4-10.9.9-16.4,1.8-10.8,2.9-21.9,6.3-32.5.3-1,.9-3.2,1.7-6.3.4-1.6.9-3.4,1.4-5.3.7-1.9,1.5-4,2.3-6.3,1.7-4.5,3.5-9.6,5.5-15,2.5-5.2,5.1-10.7,7.7-16.1C57.6,123.57,72.8,104.37,75.4,101.57Z"/><path class="cls-3" d="M183.5,29.67l-.3.1C183.2,29.87,183.7,29.67,183.5,29.67Z"/><polygon class="cls-3" points="40.9 142.77 41.2 142.27 40 144.17 40.9 142.77"/><path class="cls-3" d="M120.7,53.57c-4.6,2.9-4.6,3.3-4,2.8A30,30,0,0,1,120.7,53.57Z"/><path class="cls-3" d="M226,20.57c2.8-.4,1.7-.4.1-.2-2.8.5-4.8.8-4.8.8C222.7,21,224.4,20.77,226,20.57Z"/><path class="cls-3" d="M214.3,19.77l.8-.3C213.5,19.77,213.6,19.87,214.3,19.77Z"/><path class="cls-1" d="M426.3,329.37c-4.2-20.1-20.7-31.7-40.1-35.5-18.6-3.7-38.4-3.5-57.9-3.3-6,0-15.7,2.3-21.6,2.2-2.7,0-5.3,0-4.5-2.4l4.6-20.2,4.7-18.4-6-17.1,3.7-13.5,7-3.6,3.9,4,5.6-.7,3.5-7.8-3.4-4.6-9.3-1.1-7.6,3.8-7.1,9.7v9.2l-2.6,2.7-5.7.3-.8-6.2,1.1-8.5-2.1-7.5-12.3.2-3.1,3.8-4.8,2.3,3.4,4.5,4,2.8,4.1-3.7,2.4,3.5.9,5-.9,5.3-5.4,2.8-4.5,15.9-4.1,5.2-13.5.3-10.2,21.6-2.9,4.8c-37.9-.4-117.1-5.9-128.6,40.3-5.5-1.5-11.9-1-13.5-6.6-.9-3.3-10.1.5-10.7,4-1.7,10-3.5,19.9-5.2,29.9-.9,5.1,3.7,8.4,8.3,6.4s3.9-3.4,7-6.7c1.1-1.2,3.9-11.6,4.9-12.6,3.3-.7,2.8,6.1,6.1,5.4.4,1.4.9,6.5,1.5,7.8,6.9,6.1,8.8,7.3,19.6,6.3a6.44,6.44,0,0,0,5.3-3.6c2,1.1,9.6,1.2,11.9,2,11.1,3.7,13.3,8.2,23.5,13.5,7.3,3.7,15.4,5.3,23.4,6.3,27.5,3.4,56.2,2.2,83.9,2.3a5.17,5.17,0,0,0,4.4-2.2h0a5.56,5.56,0,0,0,2.3.5c7.9.4,15.8.8,23.6,1.1a5,5,0,0,0,4.2-1.9c17.9-.4,36.3-1.3,52.4-6.5,7.8-2.5,20.7-12,25.3-18.5,6.9-9.9,13.8-12.4,19.3-16.9l5.5.9C423.7,337,427.2,333.87,426.3,329.37Z"/><path class="cls-3" d="M247.8,380.27c-16.5,0-33.2-.4-49.3-2.4-7.3-.9-15.9-2.4-23.5-6.3a79.77,79.77,0,0,1-9.7-6.1c-3.9-2.8-7.2-5.2-13.7-7.3a31.28,31.28,0,0,0-4.9-.7,38.66,38.66,0,0,1-6.7-1.1,6.87,6.87,0,0,1-5.4,3.5c-11.1,1-13.1-.4-19.9-6.4l-.1-.1a33.68,33.68,0,0,1-.9-4.6c-.2-1.2-.3-2.3-.5-3-1.7.2-2.5-1.5-3.1-2.9-.8-1.7-1.3-2.8-2.6-2.5a34.19,34.19,0,0,0-2.3,5.9c-1.2,3.6-2,5.9-2.6,6.5-1,1.1-1.6,2-2.2,2.7a9.73,9.73,0,0,1-5,4,6.65,6.65,0,0,1-6.7-.6,6.14,6.14,0,0,1-2.1-6.1l5.2-29.9c.5-2.6,5.3-5.4,8.5-5.5,1.5-.1,2.5.5,2.8,1.5,1.1,4,5,4.7,9.2,5.5,1.2.2,2.5.5,3.7.8,10.9-42.5,78.7-41.2,119.2-40.4,3.3.1,6.5.1,9.4.2l2.8-4.6,10.2-21.7,13.5-.3,3.9-5,4.5-16,5.3-2.8.9-5.1-.9-4.8-2.1-3.1-4,3.6-4.3-3-3.6-4.8,5.1-2.4,3.2-3.9h.2l12.6-.2.1.2,2.1,7.6-1.1,8.5.8,5.8,5.2-.3,2.4-2.5V221l7.3-9.9,7.6-3.8h.1l9.5,1.1,3.6,4.8-3.7,8.2-5.9.7-3.8-4-6.6,3.4-3.6,13.2,6,17.1v.1l-4.7,18.4-4.6,20.2a1.45,1.45,0,0,0,0,1.3c.5.7,2.2.7,3.9.7h.7a94.1,94.1,0,0,0,10.8-1.1,88,88,0,0,1,10.4-1.1h1.5c18.9-.1,38.4-.3,56.5,3.3,21.9,4.4,36.6,17.4,40.4,35.8h0a6.06,6.06,0,0,1-7.3,7.4l-5.4-.9c-1.6,1.3-3.2,2.4-5,3.6-4.3,2.9-9.3,6.2-14.1,13.2-4.6,6.6-17.6,16.2-25.4,18.6-16.4,5.3-34.8,6.1-52.4,6.5a5.25,5.25,0,0,1-4.3,1.9c-7.9-.4-15.8-.8-23.6-1.1a4.65,4.65,0,0,1-2.1-.5,5.53,5.53,0,0,1-4.5,2.1h0c-6.2,0-12.5,0-18.7.1C258.4,380.17,253.1,380.27,247.8,380.27Zm-108.2-25,.3.2c1.1.6,4.1.9,6.8,1.2a23.64,23.64,0,0,1,5.1.8,46.84,46.84,0,0,1,13.9,7.4,79.77,79.77,0,0,0,9.7,6.1c7.6,3.9,16,5.3,23.3,6.3,21.3,2.7,43.6,2.5,65.1,2.3,6.2,0,12.5-.1,18.7-.1h0a4.9,4.9,0,0,0,4.1-2l.1-.1h.3a5.37,5.37,0,0,0,2.1.5c7.9.4,15.8.8,23.6,1.1h.3a4.48,4.48,0,0,0,3.6-1.8l.1-.1h.1c17.5-.4,36-1.2,52.3-6.5,7.7-2.5,20.6-11.9,25.1-18.4,4.9-7.1,9.9-10.4,14.3-13.3a49.36,49.36,0,0,0,5-3.6l.1-.1,5.7.9a5.84,5.84,0,0,0,5.3-1.6,5.55,5.55,0,0,0,1.3-5h0c-3.8-18.1-18.3-31-39.9-35.3-18.1-3.6-37.6-3.5-56.4-3.3h-1.5a88,88,0,0,0-10.4,1.1,70.25,70.25,0,0,1-11.2,1.1h-.3c-2,0-3.7-.1-4.4-1a2.21,2.21,0,0,1-.1-1.8l4.6-20.2,4.7-18.3-6-17.1v-.1l3.7-13.6,7.3-3.8,3.9,4.1,5.2-.6,3.4-7.5-3.2-4.3-9.1-1.1-7.4,3.7-7,9.6v9.3l-2.8,2.9h-.1l-6,.3v-.3l-.8-6.2h0l1.1-8.4-2-7.2-11.9.2-3.1,3.8-4.5,2.1,3.1,4.2,3.8,2.6,4.2-3.8,2.6,3.9,1,5v.1l-1,5.4-.1.1-5.2,2.7-4.5,15.9-4.2,5.3h-.1l-13.3.3-10.1,21.4-3,5h-.2c-3,0-6.2-.1-9.6-.2-40.4-.8-108.2-2.2-118.7,40.2l-.1.3-.3-.1c-1.3-.4-2.7-.6-4-.9-4.3-.8-8.5-1.5-9.7-6-.3-.9-1.3-1-2.2-1-2.9.1-7.6,2.8-7.9,5L87,352.87a5.43,5.43,0,0,0,1.9,5.5,5.61,5.61,0,0,0,6,.5,9.48,9.48,0,0,0,4.7-3.8,22.09,22.09,0,0,1,2.3-2.8c.5-.5,1.5-3.6,2.5-6.3,1.2-3.6,2-5.8,2.5-6.3l.1-.1h.1c1.9-.4,2.7,1.3,3.4,2.9.8,1.8,1.4,2.8,2.7,2.5l.3-.1.1.3a25.42,25.42,0,0,1,.6,3.3,36.51,36.51,0,0,0,.9,4.4c6.7,5.9,8.5,7.1,19.4,6.2a6.17,6.17,0,0,0,5-3.4Z"/><path class="cls-3" d="M412.1,301.57c1,1,2.4,1.9,3.3,2.8a22.53,22.53,0,0,1,4,5.2,14.05,14.05,0,0,1,2.4,5.8c.2,1,.4,3.5,1.3,4.3s2.6.2,3.9,1.2c1.7,1.4,1.5,3.3,1.8,5.4.5,3.5.4,7.7-2.9,10-1.9,1.3-2.8.6-5,.6a23.52,23.52,0,0,0-6.9,1c-7.2,2.5-12.5,5.6-16.8,12.2-3.6,5.6-6,11.4-11.4,15.7-5.2,4.2-13.8,6.5-20.3,7.9-1.8.4-3.8.3-5.6.7-1.3.3-2.7,1.1-4,1.3-3.7.5-7.6,1.3-11.3,1.5-7.5.5-15,.8-22.5,1.1-9.6.4-19.1,2.5-28.7,2.5-4.2,0-8.3-.1-12.5.1-4,.2-7.9,0-11.8.4-4.5.4-9-.3-13.5.5-4.3.7-8.5.3-12.9.5-5,.2-10-.5-15-.2a44.15,44.15,0,0,1-16.2-1.7c-4.5-1.3-8.5-.6-13-.8-2-.1-3.4-1.2-5.3-1.7a39,39,0,0,0-5.9-.4,24.67,24.67,0,0,1-10.7-2.8c-3-1.6-5.9-3.4-8.8-5.1-2.7-1.6-3.4-3.8-5.5-6-1.2-1.3-.3-.9-1.6-1.4a14.68,14.68,0,0,0-2.9-.5c-2.4-.3-4.8-.4-7.3-.6-2.3-.2-4.2-1.1-6.4-1.6-1.4-.3-5.4-1.7-6.5-1.2.2,1.5-2.3,2.5-3.6,3.1-1.6.8-1.8.5-3.5.4-4.5-.2-8.6-.3-12.6-2.5a11.5,11.5,0,0,1-5.5-8.3c-.5-2.6-1.5-8.3-5.1-8.3a22.1,22.1,0,0,1-2.1,10.1c-1.5,3.3-2.8,7.1-6.5,8.3-3.1,1-8,3-10.8.4a15.86,15.86,0,0,1-3-4.3c-.6-1.7.1-4.4.1-6.3a63.31,63.31,0,0,1,1.6-9.7c.4-2,.1-4.1.4-6.1.3-1.7,1.1-3.4,1.5-5.1.4-1.9.2-4.1.6-6.3a9.3,9.3,0,0,1,2.1-5.1c1.7-2.2,2.1-1.5,4.4-1.4,3.2.1,7.5-2.4,9.6.7.8,1.2.6,3.2,1.7,4.2s3.4.7,4.7.5a8.24,8.24,0,0,0,1.9-.6c2.2-1.2-.7,2.1,1.1-.9.9-1.5,1.1-3.9,1.7-5.6,1.1-3.7,4.4-6.7,7.3-9.1a63.42,63.42,0,0,1,19.8-11.5c8.4-3,17-4.5,25.6-6.7,3.4-.9,6.5-2.1,9.8-3.1a13.84,13.84,0,0,1,4.5-.5,41.67,41.67,0,0,0,6.1-.4,169.15,169.15,0,0,1,23.6.6c8.7.7,17.7-1.4,26-1.1,5.3.2,5.9-3.3,8-7.2.6-1.1,1.4-2.2,2.1-3.3a16.55,16.55,0,0,0,1.9-4.9,17.28,17.28,0,0,1,6.6-9.3c1.8-1.4,2.9-1.3,5.3-1.5,1.8-.1,3.7-.7,5.4-.7,3.6,0,5.1.6,6.8-3.2s1.3-8.8,2.5-12.9,6.4-5,6.5-9a46.08,46.08,0,0,0-.2-5.2c-.2-2.2.5-2.4-1.7-2.7-1.3-.2-2.6.6-3.7,1-3.1.9-5.5.1-6.9-3.2-1.9-4.4.4-8.1,4.1-10.2,4.6-2.7,16.4-2.7,19.1,3,1.3,2.7.9,7.4.5,10.2-.2,1.3-2.3,5.1-2,6.1.5,1.6,4.3.8,4.9.2.9-.9,1.5-5.9,1.8-7.3a24.3,24.3,0,0,1,1.7-6c1-1.9,2.5-3.1,3.8-4.6,1.2-1.3,2-3.1,3.5-4.1,2.8-1.7,7.9-3.5,11-3.3,3.8.3,9.2.1,9.8,4.9.3,2.7-.4,9.1-2.2,11.3a6.69,6.69,0,0,1-1.9,1.4,12.68,12.68,0,0,1-2.3,1.2,7.57,7.57,0,0,1-1.5.1,3.4,3.4,0,0,1-1-.1,8.07,8.07,0,0,1-3.3-2.5,11.35,11.35,0,0,1-1.5-2.3c-.4-1-1.8-.5-2.3.3a23.21,23.21,0,0,0-2.3,1.4c-3.1,1.5-3,4-3.4,7.3-.3,2.6-.7,6.8.3,9.3,1,2.2,2.3,3.6,2.6,6.1a41.7,41.7,0,0,1,0,7.9c-.3,6.1-3.3,12.4-4.7,18.4a82.92,82.92,0,0,0-2,13.1c-.2,2.1-1.5,7.1.7,8.4,1.4.8,3.9-.3,5.2-.5,2.3-.3,4.7.1,7-.2,4.1-.5,8-.8,12.2-1a125.26,125.26,0,0,1,13.7-.2c4.2.3,8-.2,12-.3a42.92,42.92,0,0,1,9.4,1c4.9.9,10.1.3,15.1.9,3.6.4,7,1,10.7,1.2,4.3.2,8.6,2.5,12.7,3.8a22.79,22.79,0,0,1,5.6,2.3Zm7.2,18.5c-.9-1.4-.5-3.4-1-5-.5-1.8-1.4-2.7-2.3-4.2a34.2,34.2,0,0,0-5.7-6.3c-2.2-2-3.9-3.7-6.7-4.7-3.4-1.2-6.9-2.6-10.4-3.6-3.2-.9-5.9-.8-9.2-1.1-4.6-.5-9-1.1-13.7-1.3-6.4-.2-13.3-2.5-19.5.1-4.2,1.8-6.6,5-8.7,9a86.72,86.72,0,0,0-7,19.4c-1.2,5-3,9.8-6.7,13.5-3.8,3.9-8.9,4.8-14.2,5.1-2.3.1-4.2.7-6.5.7-2.8,0-5.5.6-8.2.8-6.3.4-12.8.9-19.1,1.6-2.3.2-4.5.9-6.7,1-3.6.3-7.3.2-11,.4-5.8.3-11.5,0-17.2.2-5.9.2-11.4-.5-17.2-.7-6.3-.2-13.4.2-19.3-.2a177.14,177.14,0,0,0-17.8-1.1c-2.3,0-4.7-.9-7.2-1.1-3.4-.3-6.8.2-10.2-.4-7.4-1.2-13.8-2.8-21.4-2.5-6.7.3-16.2-1.1-20.6,5.1-4.5,6.4,5,9.6,9.9,10.7,3.3.8,6.5,1.9,9.8,2.4,2,.3,4,.3,5.9.5.5,0,2.8.6,3.1.5.5-.4-.3-1.6.1-2.1,2.5,2.7,4.3,6.2,7,8.8s6,4,9.4,5.6c6.8,3.3,15,4.5,22.6,5.4,4.2.5,8.4.1,12.6.8,3.5.6,6.7,1.8,10.3,2.2,8.4.7,17.2-.1,25.6-.5,15.8-.8,31.9-.8,47.7-1.6,8.7-.4,17.4-1.4,26.1-1.8,1.7-.1,3.5-.9,5.1-.9.2.1.3.2.5.3.3.6.7.7,1.3.2a14.64,14.64,0,0,0,3-.2c5-.3,9.9-1.2,14.9-1.5,7.3-.5,14.2-2.4,21.2-4.1a88.31,88.31,0,0,0,10.3-3.3c2.6-1,7.1-3.4,7.9-6.2,2.5-1.5,4.4-4.7,5.4-6.3.5-.9.9-1.7,1.4-2.7.4-.7.5-.9.9-1.6.6-1,1-1.7,1.6-2.7,3.9-7.2,10.3-8.3,17.1-11.5a130.85,130.85,0,0,0-13.4-3.3c-2.6-.4-8.4-.5-10.6-2.3-2.4-2-1.1-4,1.4-4.4,5-1,10.1-1.9,15.1-2.7,2.4-.4,4.9-.3,7.3-.8A24.52,24.52,0,0,1,419.3,320.07ZM331.4,324c.5-1.7.8-3.3,1.2-5,.9-3.5,2.7-6.7,3.8-10.1a51.29,51.29,0,0,1,4.1-9.7,25.89,25.89,0,0,1,3.2-4.2c1-1.1,2.1-1.4.7-2.2-1.1-.6-3.9.1-5.2,0-2.3-.2-4.2,0-6.5,0-2.8.1-5.7.2-8.4.5a81.75,81.75,0,0,1-11.1.5c-2.6,0-9,.1-10.8-1.8-2.4-2.5-1-5.1-.7-7.9.2-1.7,0-3.5.3-5.2.4-2.1,1.2-4,1.5-6.1,1.1-7.4,3.9-14.4,4.6-21.7.5-5.4-.5-13-6.3-15.6-3-1.4-7.5-.5-10.6.4-2.5.8-6.3.9-8.4,2.6-2.3,1.8-2.5,6.2-3.1,8.8-.8,3.5-.1,7.5-2.5,10.6-1.7,2.2-5.9,3.9-8.6,3.4-3.4-.6-5.4-.9-8.8.1-2.3.7-4.3,3.7-5,6.4-.5,2-.4,2.8-1.3,4.6a2.65,2.65,0,0,1-.6.5c-.7.3-.8.9-.4,1.6-.3.7-.5,1.1-.9,1.9-1.1,1.9-1.9,4-2.9,6.1-2,3.9-5.5,3.9-9.5,4.2-8.2.5-16.4,1.1-24.6,1.2-6.9.1-13.6-.6-20.5-.4-3.4.1-6.6.4-10,.4-4.2.1-7.4,1.6-11.3,2.7-6.5,1.9-13.2,3-19.8,4.7a66,66,0,0,0-6.3,2,11.39,11.39,0,0,0-2.2.7c-1,.6-.7,1.2-1.6,1.7a32.63,32.63,0,0,1-4.1,1.4,22.27,22.27,0,0,0-4.4,2.1c-5.1,3.1-10.7,6.7-13.8,12-2.1,3.5-1.3,7.7-1,11.2.1,1.4.2,3.1-2.1,1.9-1.2-.7-1.2-2-2.5-2.6-.9-.4-3.8.1-4.8.3-2.5.4-2-.1-1.6,2.6a32.27,32.27,0,0,1,0,4.4c-.1,1.6-1,4.8-.5,6.1,5.1.3,7.3,5.9,8.6,10.3,1.8,5.9,5.1,8.1,11.2,8.6,1.2.1,5.9.9,6.1-1.1.1-.8-6-3.9-6.8-4.4-2-1.2-4.1-1.7-5.5-3.7-1.3-1.8-1.4-3.9-1.4-5.9-.1-5.3-.3-12.1,2.1-16.8.8-1.5,2.2-5.2,3.7-5.8,2.3-1,3.5,1.6,2.7,3.4-.7,1.4-2.3,2.1-3,3.7a25,25,0,0,0-1.6,7.3,29,29,0,0,0-.3,7.2,6.93,6.93,0,0,0,.3,2c-.1.7.2.9,1,.8a7.92,7.92,0,0,1,1.3,2.8c1.7-2.1,2.4-4.9,4.5-7,2.8-2.8,5.3-2.5,8.9-3.1,7.2-1.1,15.8-1.7,23.1-.3a140.85,140.85,0,0,0,23.4,2.6c7.7.1,15.5,1.9,23.2,1.8,3.3-.1,6.7.4,10,.6l6.3.3c.9,0,1.9-.1,2.8-.1,1.2,0,3-.4,4-.4,3.3.2,6.8,1.2,10.3,1.2,3.1,0,6.8-.4,10.2-.3a143.62,143.62,0,0,0,20.7-1.1c2.9-.3,5.9-1.2,8.8-1.6a110.33,110.33,0,0,1,11.5-.2,117.62,117.62,0,0,0,11.8-1.1c4.2-.5,8.6-.6,12.7-1.5a19.1,19.1,0,0,0,8-4.1,21.9,21.9,0,0,0,2-2.2,6.42,6.42,0,0,0,1-1.3M89,353.87c-.4,0,1.2,3.9,2,4.4,1.9,1.1,4.5.4,6.3-.5,3.2-1.6,6.2-7.4,6.4-11,.1-1.6-.4-3.3-.3-4.9.1-1.8,1-3.7,1-5.7.1-2.5.9-4.4.7-6.8a38.56,38.56,0,0,0-.9-4.9c-.9-4-1.2-5.2-5.6-4.6-3.6.5-5.4,1.8-6.1,5.4-.4,2.2.1,4.6-.5,6.7a66.61,66.61,0,0,0-1.7,8C89.8,344.57,89.3,349.17,89,353.87Zm334.6-18.2c2.2-3.6,2.9-6.1,1.9-10.4-.5-1.9-.4-2.4-2.1-2.9s-4.5.4-6.1.7c-8.2,1.3-17.2,1.7-25.1,4.5,1.3,1.8,4.9,1.5,6.9,1.8,2.7.4,5.3.8,8,1.3C412.6,331.67,418.1,333.87,423.6,335.67Zm-96.9-125c-2.9-2-7-3.2-10.5-2.1a16,16,0,0,0-10.3,9.1c-.8,1.9-1.8,2.8-2.2,4.9-.5,2.5-1.8,5.2-2,7.6-.1,1.1.6,3.6,2.6,2.4,1.3-.8,1.3-3.9,1.6-5.1.9-4.1,2.4-6.5,4.2-7.9,1.4-1,3.2-1.2,4.4-2.6.7-.8,2.5-4.6,3.8-4.5s.3,1.8,0,2.5a3.92,3.92,0,0,0,.3,4.5,2.65,2.65,0,0,0,.5.6,2,2,0,0,0,.8.4,6,6,0,0,0,2.3.6C326.8,221.37,326.4,213.57,326.7,210.67Zm-35,4.4c-4.4-1.6-11.6-3.6-15.5-.1-2.6,2.3-1.4,6.9,2.6,5.9.6-.2,1.1-.1,1.4-.7.2-.3.1-.7.3-.9a11.37,11.37,0,0,1,1.5-1.6c.2-.1.3-.3.5-.4.7-.3,1.4.3,2.1.2a4.33,4.33,0,0,0,.5-.1.76.76,0,0,1,.4.2c2.6,1.7,3,4.7,3.1,7.5.1,2.5.2,5.7-1,8,.6-.1,3.6-.3,3.9-.9a7.38,7.38,0,0,0,0-2.1c.1-2,.6-4,.8-6A17.22,17.22,0,0,0,291.7,215.07Z"/><path class="cls-3" d="M240.5,383.27c-1.8,0-3.6-.1-5.3-.2-2.4-.1-4.9-.2-7.4-.1a45.13,45.13,0,0,1-16.5-1.7c-2.9-.9-5.6-.8-8.5-.8h-4.2a10.13,10.13,0,0,1-3.5-1,7.42,7.42,0,0,0-2.1-.7,20.28,20.28,0,0,0-4.3-.3h-1.4a27,27,0,0,1-11.2-2.9c-3-1.6-6-3.4-8.9-5.1a12.07,12.07,0,0,1-3.9-3.9,17.41,17.41,0,0,0-1.8-2.2,11,11,0,0,1-.8-1c-.1,0-.2-.1-.4-.1a10.62,10.62,0,0,0-1.9-.4l-.8-.1c-1.6-.2-3.3-.3-4.9-.4-.8-.1-1.5-.1-2.3-.2a17.24,17.24,0,0,1-4.2-1c-.8-.2-1.5-.5-2.3-.7-.3-.1-.8-.2-1.4-.4-.9-.2-2.9-.8-3.9-.9-.5,1.4-2.3,2.3-3.6,2.9l-.4.2a4.84,4.84,0,0,1-3.1.6,3.08,3.08,0,0,1-.9-.1h-.7c-4.3-.2-8.4-.4-12.4-2.6a12.51,12.51,0,0,1-6-9.1c-.4-1.9-1.1-6-3-7.1a23,23,0,0,1-2.1,9.2l-.5,1.2c-1.4,3-2.9,6.5-6.6,7.6l-.9.3c-3.2,1.1-8,2.7-11-.1a17.83,17.83,0,0,1-3.3-4.8,11,11,0,0,1-.1-4.8c.1-.7.1-1.3.2-1.9a49.76,49.76,0,0,1,1.4-8.6l.3-1.2a15.14,15.14,0,0,0,.2-3,15.14,15.14,0,0,1,.2-3,17.1,17.1,0,0,1,.9-3,18.66,18.66,0,0,0,.7-2.2,14.82,14.82,0,0,0,.3-3.1,16.28,16.28,0,0,1,.3-3.1,10.52,10.52,0,0,1,2.4-5.7c1.6-2,2.4-2.1,4.1-1.9.3,0,.7.1,1.2.1a18.08,18.08,0,0,0,2.9-.4c2.6-.5,5.7-1.2,7.6,1.6a6.52,6.52,0,0,1,.8,2.2,4.24,4.24,0,0,0,.7,1.8c.7.6,2.5.4,3.6.3h.3a4.42,4.42,0,0,0,1.5-.5c.1-.1.3-.1.5-.2a.22.22,0,0,1,.2-.2,12.76,12.76,0,0,0,1.1-3.3c.2-.7.3-1.4.5-2,1.2-3.9,4.5-7.1,7.6-9.7a67.27,67.27,0,0,1,20.1-11.7,168.46,168.46,0,0,1,17.8-4.9c2.6-.6,5.2-1.2,7.8-1.9,2-.5,3.8-1.1,5.7-1.7,1.3-.4,2.7-.9,4.1-1.3a13.43,13.43,0,0,1,4.9-.5,17.9,17.9,0,0,0,4-.2c.7-.1,1.3-.1,2-.2a158.7,158.7,0,0,1,23.8.6,92.31,92.31,0,0,0,13.9-.5,98.06,98.06,0,0,1,12.1-.6c3.7.1,4.6-1.7,6-4.8l.9-1.8c.4-.7.9-1.4,1.3-2.1a8.34,8.34,0,0,0,.8-1.2,17.57,17.57,0,0,0,1.5-3.5l.4-1.2a18.68,18.68,0,0,1,7-9.9,8.32,8.32,0,0,1,5.5-1.7h.4a19.67,19.67,0,0,0,2.4-.3,15.46,15.46,0,0,1,3.1-.4h1.3c2.6.1,3.4.1,4.6-2.6a24.09,24.09,0,0,0,1.5-6.9,38.26,38.26,0,0,1,1-5.9,10.71,10.71,0,0,1,3.7-4.8c1.7-1.4,2.7-2.3,2.7-3.9a34.64,34.64,0,0,0-.2-4.5v-2c-.2,0-.4-.1-.8-.1a4.55,4.55,0,0,0-2.1.5,6.47,6.47,0,0,1-1.3.4c-3.9,1.1-6.7-.2-8.2-3.8-1.9-4.5-.2-8.8,4.6-11.6,3.5-2,10.1-2.5,14.8-1a9.37,9.37,0,0,1,5.9,4.5c1.1,2.2,1.2,5.9.6,10.8a14.3,14.3,0,0,1-1,2.9,13.84,13.84,0,0,0-1,2.8c.3.3,2.5,0,3.1-.4.4-.5,1-3.9,1.2-5.2a15.69,15.69,0,0,1,.3-1.6l.2-1a20.22,20.22,0,0,1,1.6-5.3,14.42,14.42,0,0,1,3-3.8l1-1a13.44,13.44,0,0,0,1.1-1.4,9,9,0,0,1,2.7-2.8c3-1.9,8.3-3.7,11.7-3.5l1.1.1c3.6.2,9.1.5,9.7,5.8.3,2.8-.3,9.6-2.4,12.1a8.17,8.17,0,0,1-2.2,1.7c-.2.1-.5.3-.7.4a7.56,7.56,0,0,1-1.8.9,4.15,4.15,0,0,1-1.9.1,4.87,4.87,0,0,1-1.2-.1c-1.5-.3-2.8-1.6-3.9-2.8a9.75,9.75,0,0,1-1.7-2.6c0,.1-.3.3-.4.5a1,1,0,0,1-.5.4c-.3.2-1.8,1.1-2.1,1.3-.1,0-.1.1-.2.1-2.1,1.1-2.4,2.5-2.7,5.5l-.1,1c-.2,1.6-.8,6.4.3,8.7.3.7.7,1.3,1,1.9a11.43,11.43,0,0,1,1.7,4.5,38.48,38.48,0,0,1,.1,6.8l-.1,1.3c-.2,4.2-1.6,8.3-2.9,12.4-.7,2.2-1.4,4.2-1.9,6.2a77.76,77.76,0,0,0-2,13,10.4,10.4,0,0,1-.2,1.5c-.3,1.8-.8,5.2.4,5.8.6.3,2,0,3-.3a13.12,13.12,0,0,1,1.5-.3,23.18,23.18,0,0,1,3.7-.1c1.2,0,2.2,0,3.3-.1,3.9-.4,7.9-.8,12.3-1h.6a97,97,0,0,1,13.2-.1,57.32,57.32,0,0,0,8.3-.1c1.2-.1,2.4-.2,3.6-.2a48,48,0,0,1,9.6,1,55.54,55.54,0,0,0,8.2.6c2.2,0,4.5.1,6.8.3,1,.1,2,.3,3,.4a65.3,65.3,0,0,0,7.6.8c3.1.1,6.2,1.3,9.1,2.4,1.3.5,2.6,1,3.9,1.4a22.88,22.88,0,0,1,5.8,2.4l3.2,3h0c.5.5,1.2,1,1.8,1.5l1.5,1.2a20.94,20.94,0,0,1,4.1,5.3,15.77,15.77,0,0,1,2.6,6.4c0,.2.1.5.1.8a7.66,7.66,0,0,0,.8,2.9c.2.2.7.2,1.1.3a5.1,5.1,0,0,1,2.7.9c1.7,1.4,1.9,3.2,2.1,4.8,0,.4.1.8.1,1.2.8,5.2-.4,9-3.4,11.1a5,5,0,0,1-4.2.9,6.15,6.15,0,0,0-1.4-.1,25,25,0,0,0-6.5,1c-6.7,2.4-12,5.3-16.2,11.7-.9,1.4-1.7,2.8-2.6,4.2-2.5,4.3-4.9,8.3-9.1,11.7-5.6,4.5-14.5,6.7-20.8,8.1a13.33,13.33,0,0,1-2.8.3,23.58,23.58,0,0,0-2.8.4,8.8,8.8,0,0,0-1.5.5,11.22,11.22,0,0,1-2.6.8l-3.7.6c-2.5.4-5.2.8-7.6,1-6.5.4-13.1.7-19.7,1l-2.8.1c-4.2.2-8.5.7-12.7,1.2a139.87,139.87,0,0,1-16.1,1.3H290c-2.9,0-6,0-9,.1-1.8.1-3.6.1-5.3.1-2.1,0-4.3,0-6.4.2a56.61,56.61,0,0,1-5.8.1,48.32,48.32,0,0,0-7.6.3,39.75,39.75,0,0,1-8.4.4c-1.5,0-3.1,0-4.6.1A5.13,5.13,0,0,0,240.5,383.27Zm-8.2-2.5c1,0,2,.1,3,.1,2.4.1,4.9.2,7.4.1a38.44,38.44,0,0,1,4.8,0,53.61,53.61,0,0,0,8-.4,43.35,43.35,0,0,1,8-.4,52.33,52.33,0,0,0,5.6-.1c2.2-.2,4.5-.2,6.6-.2,1.7,0,3.5,0,5.2-.1,3.1-.2,6.1-.2,9.1-.1h3.5a138.32,138.32,0,0,0,15.8-1.3c4.2-.5,8.5-1,12.9-1.2l2.8-.1c6.6-.3,13.2-.6,19.7-1a65.51,65.51,0,0,0,7.4-1l3.8-.6a8.64,8.64,0,0,0,2.1-.7,12.66,12.66,0,0,1,1.8-.6,16.45,16.45,0,0,1,3.1-.4,21.3,21.3,0,0,0,2.5-.3c9.5-2,16-4.5,19.9-7.6s6.1-7,8.5-11.1c.8-1.4,1.7-2.9,2.6-4.3,4.5-7,10.2-10.1,17.3-12.6a27.62,27.62,0,0,1,6.5-1.1c-.5-.2-1-.3-1.5-.5a84.59,84.59,0,0,0-11.9-3.4c-2-.4-4.1-.7-6.1-1l-.9-.1a88.94,88.94,0,0,1,8.9,2.2c1.3.4,2.7.7,4,1.1a1.08,1.08,0,0,1,.8,1,1.15,1.15,0,0,1-.6,1.1c-1.5.7-2.9,1.3-4.3,1.9-5,2.1-9.4,3.9-12.3,9.2a24,24,0,0,1-1.6,2.7,8.76,8.76,0,0,0-.7,1.2l-.2.3c-.2.4-.4.7-.6,1.1a8.27,8.27,0,0,1-.9,1.6l-.2.3c-1.1,1.7-2.9,4.5-5.2,6.1-1.5,3.8-7.7,6.3-8.4,6.6a96.44,96.44,0,0,1-10.5,3.4l-2.5.6a117.62,117.62,0,0,1-18.8,3.5c-2.4.2-4.8.5-7.1.7-2.5.3-5.1.6-7.8.8a3.44,3.44,0,0,0-.9.1,12.1,12.1,0,0,1-1.9.1,1.82,1.82,0,0,1-1.4.3,2.31,2.31,0,0,1-1.1-.8,7.87,7.87,0,0,0-2,.4,25.58,25.58,0,0,1-2.7.5c-4.3.2-8.5.6-12.8.9s-8.9.7-13.3.9c-8,.4-16.2.6-24.1.8-7.7.2-15.7.4-23.5.8l-4.8.3C239.8,380.47,236.1,380.67,232.3,380.77Zm-27.6-2.5a22.94,22.94,0,0,1,7.2.9,43.45,43.45,0,0,0,15.8,1.6h.3a49.33,49.33,0,0,1-5.5-.3,37.85,37.85,0,0,1-6.2-1.2c-1.4-.3-2.7-.7-4.1-.9a50.35,50.35,0,0,0-6.7-.5,57.81,57.81,0,0,1-5.8-.3c-1.6-.2-3.3-.4-5-.7.5.2.9.4,1.4.6a7,7,0,0,0,2.7.8c1.4.1,2.7,0,4.1,0Zm-44-22.8a1.14,1.14,0,0,1,.8.3,41.18,41.18,0,0,1,3.2,4.1,24.5,24.5,0,0,0,3.8,4.6,28.93,28.93,0,0,0,7.7,4.7l1.4.7c6.8,3.3,15,4.5,22.2,5.3a50.68,50.68,0,0,0,5.5.3,43.15,43.15,0,0,1,7.1.5c1.5.3,2.9.6,4.3,1a41.16,41.16,0,0,0,5.9,1.2c6.7.6,13.8.2,20.6-.2l4.8-.3c7.8-.4,15.8-.6,23.6-.8s16.1-.4,24.1-.8c4.4-.2,8.8-.6,13.2-.9s8.6-.7,12.9-.9a10.11,10.11,0,0,0,2.3-.4,13.52,13.52,0,0,1,2.9-.5h0a1.42,1.42,0,0,1,.6.2l.4.3c.1.1.2.1.2.2a.66.66,0,0,1,.6-.1,6.5,6.5,0,0,0,1.9-.1c.4,0,.7-.1,1-.1,2.5-.2,5.1-.5,7.6-.8s4.8-.6,7.2-.8c6.3-.4,12.5-1.9,18.5-3.4l2.6-.6a74.13,74.13,0,0,0,10.2-3.3c2.6-1,6.6-3.3,7.2-5.5a1,1,0,0,1,.5-.6c2.1-1.2,3.8-4,4.8-5.6l.2-.3c.3-.5.5-1,.8-1.4l.6-1.2.2-.3c.3-.5.4-.7.8-1.3a22,22,0,0,0,1.5-2.6c3.3-6,8.2-8,13.4-10.2.5-.2.9-.4,1.4-.6l-1-.3a81.59,81.59,0,0,0-9.2-2.2c-.6-.1-1.5-.2-2.4-.3-3-.3-6.8-.7-8.7-2.2s-1.8-2.9-1.6-3.7a4,4,0,0,1,3.5-2.7c4.5-.9,9.8-1.9,15.1-2.7a18.41,18.41,0,0,1,3.3-.3,25.72,25.72,0,0,0,4-.5,10.46,10.46,0,0,0,1.7-.4c1.3-.3,2.7-.6,4-.8a6.15,6.15,0,0,1-.2-1.9,4.84,4.84,0,0,0-.3-1.8,10.3,10.3,0,0,0-1.7-3.1l-.5-.8a31.65,31.65,0,0,0-5.5-6.1l-.9-.8c-1.8-1.6-3.2-2.9-5.5-3.7l-3.3-1.2c-2.3-.9-4.7-1.7-7.1-2.4a32.1,32.1,0,0,0-6.1-.9c-.9-.1-1.9-.1-2.9-.2-1.3-.1-2.6-.3-3.9-.4-3.3-.4-6.4-.8-9.7-.9a57,57,0,0,1-5.8-.6c-4.7-.6-9.1-1.1-13.2.6-3.5,1.4-5.8,3.9-8.1,8.5a86.62,86.62,0,0,0-6.9,19.2c-1.4,6.1-3.6,10.6-7,14-4.1,4.2-9.6,5.1-14.9,5.4l-2.8.3c-2.6.4-5.6.4-8.6.8-1.1.1-2.3.3-3.4.4-6.9.5-13.3,1-19.1,1.6a28.68,28.68,0,0,0-3.1.5c-1.2.2-2.4.4-3.6.5-2.1.2-4.2.2-6.3.2-1.6,0-3.1,0-4.7.1-3.1.2-6.3.1-9.3.1-2.6,0-5.3,0-7.9.1a98.39,98.39,0,0,1-11-.4c-2.1-.1-4.2-.3-6.3-.4-2.6-.1-5.4-.1-8.1,0-3.8,0-7.8.1-11.3-.2l-3.8-.3c-4.6-.4-9.3-.8-13.9-.8a18.44,18.44,0,0,1-4.1-.6,16.45,16.45,0,0,0-3.2-.5c-1.4-.1-2.8-.1-4.1-.1a43.61,43.61,0,0,1-6.2-.3c-1.6-.3-3.2-.6-4.7-.8-5.5-1-10.6-1.9-16.4-1.7h-3.9c-5.9,0-12.6-.1-15.9,4.6a3.9,3.9,0,0,0-.8,3.6c.8,2.2,4.6,4.2,10,5.5,1.2.3,2.4.6,3.7,1a44.71,44.71,0,0,0,6.1,1.4,21.86,21.86,0,0,0,3.6.3c.8.1,1.5.1,2.2.2a8.92,8.92,0,0,1,1.1.2,3.09,3.09,0,0,1,.8.2,1.94,1.94,0,0,1,.3-1.6,1.91,1.91,0,0,1,1-.5Zm-22.3,1.4a18.61,18.61,0,0,1,4.8,1,3.92,3.92,0,0,0,1.3.3c.9.2,1.7.5,2.5.7a16.2,16.2,0,0,0,3.8.9c.8.1,1.5.1,2.3.2a40.31,40.31,0,0,1,5,.5l.7.1a11.08,11.08,0,0,1,2.5.5c.9.3,1.1.5,1.4,1,0,.1.1.3.6.7a21.89,21.89,0,0,1,2,2.5,10.39,10.39,0,0,0,3.3,3.3c2.8,1.7,5.8,3.5,8.8,5.1a23.81,23.81,0,0,0,10.2,2.7h3.1a52.68,52.68,0,0,1-13.8-4.2l-1.4-.7c-3-1.4-5.8-2.7-8.3-5.1a31.33,31.33,0,0,1-4-5c-.5-.7-.9-1.3-1.4-1.9-.1.1-.1.2-.2.2-.5.4-1.1.3-3,0-.4-.1-.7-.1-.8-.2-.7-.1-1.5-.1-2.2-.2-1.3-.1-2.5-.2-3.8-.4a45.8,45.8,0,0,1-6.4-1.5c-1.2-.3-2.4-.7-3.6-.9-3.7-.8-10.1-2.9-11.6-6.8a5.88,5.88,0,0,1,1-5.6c3.9-5.6,11.5-5.5,17.7-5.5h3.8c6-.3,11.3.7,16.9,1.7,1.5.3,3.1.6,4.7.8a36.94,36.94,0,0,0,5.8.3c1.4,0,2.9,0,4.3.1a18.57,18.57,0,0,1,3.4.6,16.34,16.34,0,0,0,3.6.5h.9c4.4,0,8.9.4,13.3.8l3.8.3c3.4.3,7.3.2,11.1.2,2.8,0,5.5-.1,8.2,0,2.2.1,4.3.2,6.4.4a97.47,97.47,0,0,0,10.8.4c2.7-.1,5.3-.1,8-.1,3,0,6.1,0,9.2-.1,1.6-.1,3.2-.1,4.8-.1,2,0,4.1-.1,6.2-.2,1.1-.1,2.2-.3,3.4-.5s2.2-.4,3.3-.5c5.8-.6,12.2-1.1,19.2-1.6,1.1-.1,2.2-.2,3.3-.4,2.8-.4,5.7-.3,8.5-.8a27.69,27.69,0,0,1,3-.3c5.6-.3,10.1-1.3,13.5-4.7,3.1-3.1,5.1-7.3,6.4-13a86.24,86.24,0,0,1,7.1-19.7c1.8-3.6,4.3-7.5,9.2-9.6,4.7-1.9,9.6-1.3,14.3-.7a55.39,55.39,0,0,0,5.6.5c3.4.1,6.7.5,9.9.9,1.3.2,2.6.3,3.9.4,1,.1,1.9.2,2.8.2a29.89,29.89,0,0,1,6.5.9c2.4.7,4.9,1.6,7.2,2.5,1.1.4,2.2.8,3.2,1.2a16.22,16.22,0,0,1,6.2,4.2l.9.8a32.77,32.77,0,0,1,5.9,6.5l.5.8a11.82,11.82,0,0,1,2,3.7,9.08,9.08,0,0,1,.3,2.3,5.68,5.68,0,0,0,.5,2.4,1.38,1.38,0,0,1,.1,1.1,1,1,0,0,1-.9.6,31.46,31.46,0,0,0-5.2.9c-.6.1-1.1.3-1.7.4a32,32,0,0,1-4.2.5l-3.1.3c-5.3.8-10.6,1.8-15.1,2.7-1.1.2-1.7.7-1.8,1.1s.2.9.9,1.4c.9.8,2.9,1.2,4.8,1.4a5,5,0,0,1-2.9-1.7,1.15,1.15,0,0,1-.1-1,1.21,1.21,0,0,1,.7-.7c5.9-2.1,12.5-2.9,18.8-3.7,2.2-.3,4.4-.5,6.6-.9.4-.1.9-.2,1.4-.3a11.72,11.72,0,0,1,5.2-.4c2.1.6,2.3,1.5,2.8,3.3l.1.4a12.74,12.74,0,0,1-1.6,10.6.52.52,0,0,1,.4-.2c2.3-1.6,3.1-4.6,2.5-9-.1-.5-.1-.9-.2-1.4-.2-1.6-.3-2.6-1.2-3.3a2.54,2.54,0,0,0-1.6-.4,4,4,0,0,1-2.3-.8c-1.1-.9-1.4-2.8-1.6-4.2l-.1-.7a13,13,0,0,0-2.2-5.5,22.22,22.22,0,0,0-3.9-5,6.42,6.42,0,0,0-1.3-1,11.79,11.79,0,0,1-2.1-1.8l-3-2.8a20.9,20.9,0,0,0-5.2-2c-1.3-.4-2.7-.9-4-1.4-2.8-1.1-5.7-2.2-8.4-2.3s-5.3-.5-7.8-.8c-1-.1-2-.3-3-.4a47.88,47.88,0,0,0-6.6-.3,50.46,50.46,0,0,1-8.6-.6,38.47,38.47,0,0,0-9.1-1c-1.2,0-2.4.1-3.6.2a49.17,49.17,0,0,1-8.6.1,111.21,111.21,0,0,0-12.9.1h-.6c-4.3.2-8.3.6-12.2,1-1.2.1-2.4.1-3.6.1s-2.3,0-3.4.1a7.89,7.89,0,0,0-1.3.3c-.1,0-.3.1-.4.1,1.2.1,2.4.1,3.2.1h.8a84,84,0,0,0,11-.5c2.7-.3,5.5-.4,8.2-.5l1.5-.1a48.63,48.63,0,0,1,5.4,0,10.28,10.28,0,0,0,1.7-.1c1.5-.1,3-.3,4,.3a2.13,2.13,0,0,1,1.2,1.5,2.1,2.1,0,0,1-1,1.8l-.6.6a20.87,20.87,0,0,0-3,4,48.44,48.44,0,0,0-4,9.5c-.5,1.5-1.1,3-1.7,4.4a39,39,0,0,0-2.1,5.7c-.2.7-.3,1.3-.5,2-.2,1-.5,2-.7,3a1.14,1.14,0,1,1-2.2-.6c.3-1,.5-1.9.7-2.9.2-.7.3-1.4.5-2.1a38.9,38.9,0,0,1,2.2-6,36.06,36.06,0,0,0,1.6-4.2,49.13,49.13,0,0,1,4.2-9.9,26.55,26.55,0,0,1,3.3-4.4l.6-.6a9.06,9.06,0,0,0-2.3.1,16.23,16.23,0,0,1-2.1.1,43.39,43.39,0,0,0-5.1,0l-1.5.1c-2.7.1-5.4.2-8,.4a87.78,87.78,0,0,1-11.2.5h-.8c-4.3,0-9-.2-10.8-2.2-2.3-2.4-1.8-4.9-1.3-7.1.1-.6.2-1.1.3-1.7a17,17,0,0,0,.1-2.3,15.14,15.14,0,0,1,.2-3c.2-1,.5-2,.7-3a19.46,19.46,0,0,0,.7-3.1c.5-3.4,1.4-6.7,2.2-10a78.34,78.34,0,0,0,2.4-11.7c.2-2.7.6-11.7-5.7-14.5-3.1-1.4-7.9-.1-9.8.5a19.07,19.07,0,0,1-2.8.7c-2,.4-4,.8-5.2,1.8-1.4,1.2-1.9,3.9-2.3,6.1-.1.7-.3,1.4-.4,2.1a18.43,18.43,0,0,0-.5,3.5c-.2,2.6-.4,5.2-2.2,7.6-2,2.6-6.6,4.4-9.6,3.8-3.4-.6-5.2-.9-8.3.1-1.7.5-3.6,3-4.2,5.6a13.12,13.12,0,0,0-.3,1.5A11.51,11.51,0,0,1,255,273c-.1.1-.1.2-.2.3l-.6.5c-.1.1-.2.1-.3.2a1.42,1.42,0,0,1,.1,1.1l-.2.4a7.42,7.42,0,0,1-.8,1.5,35.92,35.92,0,0,0-1.7,3.4c-.4.8-.8,1.7-1.2,2.6-2.2,4.3-6,4.5-9.8,4.8l-2.8.2c-7.3.5-14.9,1-22.5,1.1-3.4,0-6.7-.1-9.9-.2-3.5-.1-7-.3-10.6-.2-1.5,0-3,.1-4.5.2-1.8.1-3.6.2-5.5.2a25.08,25.08,0,0,0-8.2,1.8c-.9.3-1.9.6-2.8.9-3.7,1.1-7.6,2-11.4,2.8-2.8.6-5.6,1.2-8.4,2a54.72,54.72,0,0,0-6.2,2c-.3.1-.6.2-1,.3s-.9.2-1.1.3-.3.3-.5.5a3.83,3.83,0,0,1-1.1,1.2,13.94,13.94,0,0,1-2.7,1c-.6.2-1.1.3-1.6.5a28.26,28.26,0,0,0-4.3,2c-5.5,3.3-10.6,6.7-13.4,11.6-1.6,2.7-1.3,6-1,9.1l.1,1.5v.9a10.09,10.09,0,0,1,.7-1.5,9.74,9.74,0,0,1,.5-1.1c1.2-2.5,2.3-4.7,3.7-5.3a3,3,0,0,1,3.5.6,3.83,3.83,0,0,1,.6,4.2,7.83,7.83,0,0,1-1.6,2A4.84,4.84,0,0,0,127,328a18.22,18.22,0,0,0-1.4,6.4l-.1.6a27,27,0,0,0-.3,7,5.66,5.66,0,0,0,.3,1.8.89.89,0,0,1,.8.5c.2.3.4.7.7,1.1a6.11,6.11,0,0,0,.7-1.4,17.07,17.07,0,0,1,2.7-4.1c2.5-2.6,4.8-2.8,7.5-3.2a16.21,16.21,0,0,0,2-.3c5.1-.8,14.8-1.9,23.4-.3a137.08,137.08,0,0,0,23.2,2.6,103.76,103.76,0,0,1,11.1.9,82.13,82.13,0,0,0,12.1.9,48.61,48.61,0,0,1,6.6.3c1.2.1,2.3.2,3.5.2h.8c1.8.1,3.7.2,5.5.2h2.7a13.66,13.66,0,0,0,1.9-.2,20.62,20.62,0,0,1,2.1-.2,36.21,36.21,0,0,1,4.6.6,36.8,36.8,0,0,0,5.6.6c1.3,0,2.6-.1,4.1-.1,2-.1,4.1-.2,6.2-.1a151.64,151.64,0,0,0,20.6-1.1c1.4-.2,3-.5,4.5-.8s2.9-.6,4.3-.8a60,60,0,0,1,8.5-.2c1.1,0,2.1.1,3.1,0a85.36,85.36,0,0,0,8.6-.7c1-.1,2.1-.3,3.1-.4,1.3-.1,2.6-.3,3.9-.4a62.69,62.69,0,0,0,8.7-1.1,17.62,17.62,0,0,0,7.5-3.9,12,12,0,0,0,1.8-2c.2-.2.3-.4.5-.6s.4-.4.4-.5a1.12,1.12,0,0,1,1.4-.7,1.08,1.08,0,0,1,.7,1.4,3.32,3.32,0,0,1-.9,1.3l-.3.3a17.42,17.42,0,0,1-2.2,2.4,19.38,19.38,0,0,1-8.5,4.4,67,67,0,0,1-9,1.1c-1.3.1-2.6.2-3.9.4-1,.1-2,.2-3.1.4a87.17,87.17,0,0,1-8.8.8H291a73.62,73.62,0,0,0-8.2.2c-1.3.2-2.7.4-4.1.7a35.45,35.45,0,0,1-4.7.8,154.37,154.37,0,0,1-20.9,1.1c-1.9-.1-4,0-6,.1-1.5.1-2.9.1-4.2.1a30.69,30.69,0,0,1-6-.7,35.62,35.62,0,0,0-4.4-.6,14.93,14.93,0,0,0-1.7.2,18,18,0,0,1-2.2.2h-2.8c-1.9,0-3.7-.1-5.6-.2h-.8l-3.5-.3c-2.1-.2-4.3-.3-6.4-.3a101.93,101.93,0,0,1-12.4-.9,98.29,98.29,0,0,0-10.8-.9,142,142,0,0,1-23.6-2.6c-8.3-1.5-17.8-.4-22.7.3l-2.1.3c-2.6.3-4.3.5-6.2,2.5a15.07,15.07,0,0,0-2.4,3.6,16.68,16.68,0,0,1-2.1,3.3,1.19,1.19,0,0,1-1.1.4,1.09,1.09,0,0,1-.8-.8,7.88,7.88,0,0,0-.9-1.9,1.27,1.27,0,0,1-.9-.4,1.42,1.42,0,0,1-.5-1.4,6.93,6.93,0,0,1-.3-2,35.19,35.19,0,0,1,.4-7.4l.1-.6a23.78,23.78,0,0,1,1.6-7,8.77,8.77,0,0,1,1.8-2.3,7.47,7.47,0,0,0,1.2-1.4,1.68,1.68,0,0,0-.2-1.8c-.2-.2-.4-.4-1.1-.1s-2,3-2.6,4.2a9.74,9.74,0,0,0-.5,1.1c-2.2,4.3-2.1,10.7-2,15.8v.5c0,2,.1,3.7,1.2,5.3a8,8,0,0,0,3.4,2.5c.6.3,1.2.6,1.7.9a5.76,5.76,0,0,0,.9.5c5.7,3.1,6.6,3.9,6.5,5a2.24,2.24,0,0,1-.8,1.5c-1.3,1-3.8.9-6,.6l-.7-.1c-6.8-.6-10.4-3.3-12.2-9.4-1.4-4.6-3.4-9.3-7.6-9.5a1.2,1.2,0,0,1-1-.7,10,10,0,0,1,.2-4.5c.1-.8.3-1.5.3-2v-.9a18.15,18.15,0,0,0,0-3.3c-.1-.5-.1-.9-.2-1.2a2.2,2.2,0,0,1,.2-1.8,2.48,2.48,0,0,1,1.8-.7l1.1-.2c2.4-.4,4.1-.5,5-.1a3.74,3.74,0,0,1,1.8,1.7,2.42,2.42,0,0,0,.8.9,1.69,1.69,0,0,0,.5.2v-1.1l-.1-1.5c-.3-3.3-.7-7,1.3-10.4,3.1-5.3,8.5-8.9,14.2-12.4a32.54,32.54,0,0,1,4.6-2.2,18.88,18.88,0,0,1,1.8-.6,9.27,9.27,0,0,0,2.2-.8.68.68,0,0,0,.3-.4,3.44,3.44,0,0,1,1.2-1.3,5.56,5.56,0,0,1,1.7-.6c.3-.1.6-.1.8-.2,2.5-.9,4.4-1.5,6.4-2.1,2.8-.7,5.7-1.4,8.5-2,3.7-.8,7.6-1.7,11.2-2.7,1-.3,1.9-.6,2.8-.9a30.59,30.59,0,0,1,8.8-1.9c1.9,0,3.6-.1,5.4-.2,1.5-.1,3-.2,4.6-.2,3.6-.1,7.3.1,10.8.2,3.2.1,6.5.3,9.7.2,7.5-.1,15-.6,22.4-1.1l2.8-.2c3.7-.2,6.3-.4,7.9-3.6.4-.8.8-1.6,1.2-2.5a31.4,31.4,0,0,1,1.8-3.7c.3-.5.5-.9.7-1.3a1.93,1.93,0,0,1,0-1.3,2.14,2.14,0,0,1,1-1.2l.3-.3a9,9,0,0,0,.8-2.5c.1-.5.2-1,.4-1.7.7-2.8,2.8-6.3,5.7-7.2,3.7-1.2,6.1-.7,9.3-.1,2.2.4,6-1.1,7.5-3s1.6-4.1,1.8-6.4a23.2,23.2,0,0,1,.5-3.8c.1-.6.3-1.2.4-1.9.5-2.6,1-5.8,3.1-7.5,1.6-1.3,4-1.8,6.1-2.2.9-.2,1.8-.4,2.6-.6,2.7-.9,7.7-2,11.3-.4,7.6,3.4,7.3,13.6,7,16.7a83.54,83.54,0,0,1-2.4,12.1,84.05,84.05,0,0,0-2.1,9.7,33.83,33.83,0,0,1-.8,3.4,22.91,22.91,0,0,0-.7,2.8,21.3,21.3,0,0,0-.2,2.7,20.08,20.08,0,0,1-.1,2.5c-.1.6-.2,1.3-.3,1.9-.5,2.3-.7,3.7.7,5.2a3.49,3.49,0,0,0,.9.6c-1.4-1.8-.9-5-.6-7.3a8.32,8.32,0,0,0,.2-1.3,93.2,93.2,0,0,1,2.1-13.3c.5-2.1,1.2-4.3,1.9-6.4,1.3-3.9,2.6-7.9,2.8-11.8l.1-1.3a34.22,34.22,0,0,0-.1-6.4,9.33,9.33,0,0,0-1.5-3.7,20.14,20.14,0,0,1-1.1-2.1c-1.1-2.6-.8-6.6-.4-9.8l.1-.9a23.58,23.58,0,0,1,.4-2.8,21.33,21.33,0,0,0-.9,3,8.66,8.66,0,0,0-.2,1c-.2,1.6-.5,3.9-1.9,4.8a2.6,2.6,0,0,1-2.8.2,4,4,0,0,1-1.5-3.6,19.24,19.24,0,0,1,1.1-4.6,22.27,22.27,0,0,0,.9-3.2,8.93,8.93,0,0,1,1.4-3.4,13.13,13.13,0,0,0,.9-1.7,17.45,17.45,0,0,1,11-9.7c3.4-1.1,7.9-.2,11.4,2.3a1.23,1.23,0,0,1,.5,1c0,.4-.1.9-.1,1.5-.2,2.9-.4,6.9-2.5,8.8a3.93,3.93,0,0,1-3,1,9.89,9.89,0,0,1-2.6-.7c-.2-.1-.3-.1-.5-.2a7.23,7.23,0,0,0,2.5,1.9,2,2,0,0,0,.8.1,4.48,4.48,0,0,0,1.2-.1,6.72,6.72,0,0,0,1.2-.6,5.58,5.58,0,0,0,.8-.5,4.84,4.84,0,0,0,1.5-1.1c1.5-1.8,2.2-7.8,1.9-10.5-.4-3.2-3.4-3.6-7.6-3.9l-1.2-.1c-2.8-.2-7.7,1.5-10.4,3.2a7.13,7.13,0,0,0-2,2.2,10.92,10.92,0,0,1-1.3,1.7c-.3.4-.7.7-1,1.1a17,17,0,0,0-2.7,3.3,18.28,18.28,0,0,0-1.4,4.7l-.2,1a9.59,9.59,0,0,0-.3,1.5c-.6,3.7-1,5.6-1.8,6.4s-3.3,1.3-4.8.9a2.8,2.8,0,0,1-1.7-1.1,2.71,2.71,0,0,1-.3,1.6c-.4.6-1.3,1-4.6,1.3a1.17,1.17,0,0,1-1.1-.5,1.07,1.07,0,0,1-.1-1.1c1.1-2.2.9-5.4.9-7.5-.1-3-.6-5.3-2.6-6.6a2.71,2.71,0,0,1-1.6-.1,4.33,4.33,0,0,1-.5-.1,4.67,4.67,0,0,0-1.4,1.5,4.65,4.65,0,0,1-.3.9,2.26,2.26,0,0,1-1.8,1.1l-.3.1a4,4,0,0,1-4.8-1.9,4.84,4.84,0,0,1,1.3-5.9c3.3-2.9,8.9-2.9,16.6-.1a.9.9,0,0,1,.6.6c1.4,3.4,1.1,6.9.8,9.7-.1.8-.2,1.5-.3,2.3l-.3,1.8c.2-.6.5-1.2.8-1.9a14.92,14.92,0,0,0,.9-2.3c.6-4.4.5-7.8-.4-9.6s-3-2.9-4.6-3.4c-4.5-1.4-10.4-.7-13,.8-1.8,1-5.7,4-3.6,8.8,1.1,2.5,2.7,3.3,5.6,2.5a4.18,4.18,0,0,0,1-.4,5.42,5.42,0,0,1,3.1-.6c2,.2,2.7.7,2.7,2.6v1.6c.1,1.6.2,3.2.2,4.8-.1,2.6-1.9,4.1-3.5,5.5a8.74,8.74,0,0,0-3.1,3.8,30.08,30.08,0,0,0-.9,5.5,26.37,26.37,0,0,1-1.6,7.5c-1.8,4.1-3.8,4-6.6,3.9h-1.2c-.8,0-1.7.2-2.7.3a25.12,25.12,0,0,1-2.7.4h-.4c-2,.1-2.8.1-4.2,1.2a16.43,16.43,0,0,0-6.2,8.8l-.4,1.1a15,15,0,0,1-1.7,4c-.3.4-.6.9-.9,1.3a12.23,12.23,0,0,0-1.2,1.9l-.9,1.8c-1.5,3.2-2.9,6.3-8.1,6a79.76,79.76,0,0,0-11.8.6,85.14,85.14,0,0,1-14.3.5c-8.2-.6-15.6-1.1-23.5-.6a12.25,12.25,0,0,0-1.9.2,31,31,0,0,1-4.4.2,11.55,11.55,0,0,0-4.1.5c-1.4.4-2.7.8-4,1.3-1.9.6-3.8,1.3-5.8,1.8-2.6.7-5.3,1.3-7.9,1.9a143.87,143.87,0,0,0-17.6,4.8,63.57,63.57,0,0,0-19.4,11.3c-2.8,2.4-5.9,5.3-6.9,8.6a9.51,9.51,0,0,0-.4,1.8,12.54,12.54,0,0,1-1.3,4h0a2,2,0,0,1-.6,1.4,1.22,1.22,0,0,1-1.6.1,7.32,7.32,0,0,1-1.6.4h-.3c-1.5.2-3.8.4-5.3-.8a5,5,0,0,1-1.4-2.9,5.27,5.27,0,0,0-.5-1.5c-1-1.4-2.6-1.2-5.3-.7a13.17,13.17,0,0,1-3.4.4c-.6,0-1-.1-1.4-.1-1.1-.1-1.2-.1-2.2,1.1a8.37,8.37,0,0,0-1.9,4.6,28.25,28.25,0,0,0-.2,2.9,19.73,19.73,0,0,1-.4,3.5,24.13,24.13,0,0,1-.8,2.5,25.82,25.82,0,0,0-.8,2.6,21.75,21.75,0,0,0-.1,2.6,14.21,14.21,0,0,1-.3,3.5l-.3,1.3a38.88,38.88,0,0,0-1.3,8.2,18.32,18.32,0,0,1-.2,2.1,9.63,9.63,0,0,0,0,3.8,14.38,14.38,0,0,0,2.7,3.9c2.1,1.9,6,.6,8.8-.3l.9-.3c2.7-.9,4-3.6,5.3-6.5l.6-1.2a21,21,0,0,0,2-9.7,1.11,1.11,0,0,1,1.1-1.1c4.5,0,5.6,6.2,6.2,9.2.7,3.5,2.5,6.3,4.9,7.6,3.6,1.9,7.2,2.1,11.4,2.3h.7a3.08,3.08,0,0,1,1,.1,2.53,2.53,0,0,0,2-.4l.5-.2c1.7-.8,2.5-1.4,2.5-1.8a1,1,0,0,1,.6-1.1C137.5,356.87,137.9,356.87,138.4,356.87Zm-29.6-18.8c5.7.9,7.7,7.9,8.7,11,1.6,5.2,4.4,7.4,10.3,7.8l.6.1c2.5.3,3.6.2,4.1,0a36.26,36.26,0,0,0-5-3,8.92,8.92,0,0,1-1-.5,11.94,11.94,0,0,0-1.6-.8,9.67,9.67,0,0,1-4.2-3.2,11,11,0,0,1-1.6-6.5v-.5c-.1-4.1-.2-9,.9-13.2-.1.1-.2.1-.3.2a2.88,2.88,0,0,1-2.8-.2,3.65,3.65,0,0,1-1.6-1.7c-.3-.5-.4-.7-.7-.8s-1.2-.1-3.9.3l-1.2.2h-.1a12.29,12.29,0,0,1,.2,1.3,22.85,22.85,0,0,1,0,3.7v.9c0,.6-.2,1.5-.3,2.4A7,7,0,0,0,108.8,338.07Zm285.9-10.3a23,23,0,0,0,2.6.3,8.81,8.81,0,0,1,1.7.2l1.9.3c2.1.3,4.1.6,6.1,1a95.42,95.42,0,0,1,12.2,3.5c1.2.4,2.5.9,3.7,1.3a10.66,10.66,0,0,0,1.3-8.8l-.1-.4c-.3-1.4-.3-1.4-1.3-1.7s-2.7.1-4.1.4c-.6.1-1.1.2-1.6.3l-6.6.9A111.11,111.11,0,0,0,394.7,327.77ZM285,216.37h.2a1.9,1.9,0,0,1,.9.3c3,1.9,3.5,5.1,3.6,8.4a25.43,25.43,0,0,1-.4,6.8,4.91,4.91,0,0,0,1.3-.3V231c0-.4-.1-.7,0-.9.1-1.3.3-2.5.5-3.8.1-.8.2-1.5.3-2.2.4-3.4.3-6-.5-8.1-6.6-2.3-11.4-2.4-14-.1a2.93,2.93,0,0,0-.8,3.3c.4.8,1.2,1.1,2.4.8l.4-.1c.1,0,.3-.1.4-.1a1.61,1.61,0,0,1,.3-.9,9.34,9.34,0,0,1,1.6-1.8c.3-.2.5-.5.9-.6a2.76,2.76,0,0,1,1.8,0,4.33,4.33,0,0,1,.5.1C284.5,216.37,284.7,216.37,285,216.37Zm34-7.1a6.9,6.9,0,0,0-2.5.4,15.06,15.06,0,0,0-9.6,8.5c-.3.7-.7,1.3-1,1.9a8.08,8.08,0,0,0-1.1,2.7c-.2,1.1-.6,2.3-.9,3.4a16.32,16.32,0,0,0-1,4.1,2.25,2.25,0,0,0,.5,1.5.62.62,0,0,0,.4-.2c.5-.4.8-2.4.9-3.3.1-.5.1-.9.2-1.2.9-4.1,2.4-6.9,4.6-8.5a10.6,10.6,0,0,1,2.1-1.1,5.39,5.39,0,0,0,2.1-1.3c.2-.2.4-.6.7-1,1.4-2.2,2.6-4,4-3.9a1.54,1.54,0,0,1,1.5.8c.6,1-.1,2.2-.5,3a3.14,3.14,0,0,0,.1,3.7c.1.1.2.3.3.3a.76.76,0,0,0,.5.2,8.24,8.24,0,0,0,1.9.6,2.12,2.12,0,0,0,1.4-.4c1.5-1.3,1.7-5.1,1.8-7.3a3.4,3.4,0,0,1,.1-1A12.88,12.88,0,0,0,319,209.27Zm-6.7,10.3a10.93,10.93,0,0,0-1.5.8,2.65,2.65,0,0,0-.6.5,3.46,3.46,0,0,1,1.2-.7h0Zm3.4-1.8h.2a1.61,1.61,0,0,1,.9.3,4.52,4.52,0,0,1,.3-3.2c-.3.5-.7,1-.9,1.4a12.61,12.61,0,0,1-.9,1.3l-.2.2ZM93.2,360a5.81,5.81,0,0,1-2.8-.7c-1-.6-2.9-4.6-2.6-5.7v-.1c.4-4.8.9-9.3,1.4-13.7.3-2.2.8-4.1,1.2-6,.2-.7.3-1.4.5-2a16.68,16.68,0,0,0,.2-3.2,21.14,21.14,0,0,1,.2-3.5c.9-4.5,3.4-5.7,7-6.3,5.2-.8,5.8,1.1,6.8,5.3a29.92,29.92,0,0,1,.9,5.2,14.11,14.11,0,0,1-.3,4.2,12.65,12.65,0,0,0-.3,2.8,12.76,12.76,0,0,1-.6,3.4,10.11,10.11,0,0,0-.4,2.3,17,17,0,0,0,.1,2.2,12.21,12.21,0,0,1,.1,2.7c-.3,4-3.4,10.1-7,11.9A9.73,9.73,0,0,1,93.2,360Zm-3.2-5.9a12.68,12.68,0,0,0,1.6,3.3c1.7,1,4.4-.2,5.2-.6,2.8-1.4,5.6-6.8,5.8-10.1a9.06,9.06,0,0,0-.1-2.3,11.33,11.33,0,0,1-.1-2.6,25.58,25.58,0,0,1,.5-2.7,16,16,0,0,0,.5-2.9,15.46,15.46,0,0,1,.4-3.1,14.21,14.21,0,0,0,.3-3.6,36.72,36.72,0,0,0-.8-4.8c-.9-4-1-4.2-4.4-3.7s-4.6,1.6-5.2,4.5a15.14,15.14,0,0,0-.2,3,16.68,16.68,0,0,1-.3,3.8c-.2.7-.3,1.4-.5,2.1a49.5,49.5,0,0,0-1.2,5.8c-.6,4.4-1,9-1.4,13.9C90,354,90,354.07,90,354.07Z"/><path class="cls-3" d="M259.8,290.17c-1.2-.3-1.7-.1-2-1.1-.3-.8.1-2.2,1-2.3,1.4-.1.8.9,1.5,1.5a4.26,4.26,0,0,0,1.9,1c2.4.9,5.3.6,7.8.5,1.2-.1,4.8-.7,5.8-.1,4.3,2.3-4.5,4-6.1,4s-3.4-.4-5.1-.5C262.7,293.07,260,292.57,259.8,290.17Z"/><path class="cls-3" d="M275.6,282.77a40.38,40.38,0,0,1-8.5.4c-1.5,0-6.7-.5-7.4.5-.9-1.3-1.8-1.5-1.4-3.1.3-1.2,1.3-1.6,2.4-1.8,1.8-.4,4.2.6,6,.8S277.3,278.67,275.6,282.77Z"/><path class="cls-3" d="M262.4,272.87c1.4-1.8,7.5-.8,9.7-1,1.1-.1,3.9-1,4.4-.5,1.1.9.2,2.1-.6,2.8C273,276.57,263.5,276.67,262.4,272.87Z"/><path class="cls-3" d="M195.3,319.47c.9-.4,1.4-2.2,1.9-3.1a14.35,14.35,0,0,1,2.9-3.6,10.37,10.37,0,0,1,8-2.9c5.4.4,12.3,4.4,10.4,10.9-1.8,5.8-8.3,8.4-13.8,8C199.5,328.47,195.8,324.87,195.3,319.47Zm17.2-5.1c-4.2-1.6-8.1-2-11.2,1.9-2.6,3.3-2.2,7,1.8,8.7,3.4,1.5,8.9-.3,11-3.2a5.75,5.75,0,0,0,1-4C214.8,316.17,212.8,315.37,212.5,314.37Z"/><path class="cls-3" d="M205.8,329.27h-1.1a10.29,10.29,0,0,1-9.8-9.7.55.55,0,0,1,.3-.5c.5-.2.9-1.2,1.2-1.9.2-.4.3-.7.4-.9a11.93,11.93,0,0,1,3-3.7,10.89,10.89,0,0,1,8.3-3c3.4.3,7.7,2,9.9,5.1a7.22,7.22,0,0,1,.9,6.4C217.2,326.57,211.2,329.27,205.8,329.27Zm-10-9.5a9.29,9.29,0,0,0,8.9,8.6c5.3.4,11.6-2.1,13.3-7.7a6.51,6.51,0,0,0-.8-5.6c-2-2.9-6-4.5-9.2-4.7a9.94,9.94,0,0,0-7.6,2.8,13.49,13.49,0,0,0-2.8,3.5,3.92,3.92,0,0,0-.4.9A6.36,6.36,0,0,1,195.8,319.77Zm10.1,6.3a7.31,7.31,0,0,1-3-.6,5.65,5.65,0,0,1-3.6-3.8c-.5-1.8.1-3.8,1.6-5.7,3.5-4.5,7.9-3.6,11.7-2.1.1.1.3.2.3.3.1.3.5.6.9,1a5.24,5.24,0,0,1,1.8,2.5,5.82,5.82,0,0,1-1,4.4C212.8,324.57,209.1,326.07,205.9,326.07Zm1.4-12.4a6.83,6.83,0,0,0-5.6,2.9,5.65,5.65,0,0,0-1.4,4.9c.3,1.4,1.4,2.4,3.1,3.2,3.1,1.3,8.3-.2,10.5-3.1a3.63,3.63,0,0,0-.6-5.6,4,4,0,0,1-1.1-1.2A14.63,14.63,0,0,0,207.3,313.67Z"/><path class="cls-3" d="M165.6,321c.6-4.8,3.8-11,9.3-11.3s10.7,2.3,12.1,8.1c1.3,5.6-1.7,9.6-7.2,10.4-3.4.5-6.7.9-9.9-.7a5.34,5.34,0,0,1-2.6-2.3C166.4,323.87,166.8,321.77,165.6,321Zm4.7-.1c-2.8,5.2,10.4,5.1,12.7,1.8,1.2-1.8,1.1-4.6.3-6.6a2.76,2.76,0,0,0-2.4-2.2c-.9-.1-2,1-2.6.8.8-1.7,1-1.9-1.1-1.9a7,7,0,0,0-3.8,1.1C171.7,314.77,167.9,319,170.3,320.87Z"/><path class="cls-3" d="M175.1,329a11.77,11.77,0,0,1-5.4-1.2,6.16,6.16,0,0,1-2.8-2.5,4.66,4.66,0,0,1-.6-2c-.2-.8-.3-1.6-.9-2-.2-.1-.2-.3-.2-.5.6-4.5,3.7-11.4,9.7-11.7,6.4-.4,11.3,2.9,12.6,8.4a8.51,8.51,0,0,1-7.6,11A26.07,26.07,0,0,1,175.1,329Zm-9-8.2a3.69,3.69,0,0,1,1,2.4,3.77,3.77,0,0,0,.5,1.6,6,6,0,0,0,2.5,2.2c3.1,1.6,6.4,1.1,9.6.7a8.33,8.33,0,0,0,5.9-3.3,7.91,7.91,0,0,0,.9-6.5c-1.2-5-5.7-8.1-11.6-7.7C169.5,310.47,166.7,316.57,166.1,320.77Zm9.7,4.7a10.34,10.34,0,0,1-5-1,2.51,2.51,0,0,1-1.1-3.4,2.21,2.21,0,0,1-.6-1.9c.1-2.2,2.7-4.9,4.1-5.7a7.11,7.11,0,0,1,4-1.2c1.1,0,1.7.1,2,.5a1.11,1.11,0,0,1-.1,1.1h0a2.73,2.73,0,0,1,1.8-.5,3.5,3.5,0,0,1,2.8,2.6,8.19,8.19,0,0,1-.4,7C182.2,324.57,178.9,325.47,175.8,325.47Zm1.2-12.3a5.72,5.72,0,0,0-3.4,1.1c-1.2.7-3.5,3.1-3.6,4.9a1.82,1.82,0,0,0,.6,1.4c.2.1.2.4.1.6a1.63,1.63,0,0,0,.6,2.5c2.8,1.7,9.8.9,11.3-1.2a7.25,7.25,0,0,0,.3-6.1,2.41,2.41,0,0,0-2-1.9c-.4-.1-.8.2-1.2.4s-1,.6-1.5.4q-.15,0-.3-.3v-.4l.1-.3a4.91,4.91,0,0,0,.4-1h-1.2C177.1,313.17,177.1,313.17,177,313.17Z"/><path class="cls-3" d="M267.7,309.87c2.8,1.4,6,1,8.7,3.1a8.1,8.1,0,0,1,2.8,5.9c.2,3.2-.8,4.8-3,7-1.7,1.8-3.4,3.9-6,4.4a12.07,12.07,0,0,1-8.9-1.7c-2.5-1.7-2.9-3.7-3-6.7-.1-2.8.7-6.5,2.5-8.6a7.75,7.75,0,0,1,3.2-2.4C265.1,310.47,266.8,310.57,267.7,309.87Zm3.1,3.3c-2,1.5-2.7.2-4.9.8-2.4.6-3.2,2.1-3.8,4.3-1,3.9-.4,7.9,4.1,8.6,4.3.7,6.9-1.6,9.3-4.8C278.1,318.37,274.3,315,270.8,313.17Z"/><path class="cls-3" d="M267.9,331a12.41,12.41,0,0,1-6.9-2c-2.6-1.8-3.1-3.9-3.2-7-.1-2.8.7-6.7,2.7-8.9a8.62,8.62,0,0,1,3.4-2.5,9.36,9.36,0,0,1,1.6-.4,3.94,3.94,0,0,0,2-.6.75.75,0,0,1,.5-.1,13.74,13.74,0,0,0,3.6,1.1,11.69,11.69,0,0,1,5.2,2.1,8.78,8.78,0,0,1,3,6.2c.2,3.3-.8,4.9-3.2,7.4l-.6.7c-1.6,1.7-3.2,3.4-5.6,3.9C269.5,330.87,268.7,331,267.9,331Zm-.1-20.6a5.12,5.12,0,0,1-2.2.6c-.5.1-1,.2-1.4.3a7.33,7.33,0,0,0-3,2.2c-1.8,2.1-2.5,5.6-2.4,8.3.1,3,.5,4.7,2.8,6.3a11.56,11.56,0,0,0,8.6,1.6c2.1-.4,3.6-2.1,5.1-3.6l.6-.7c2.2-2.3,3.1-3.7,2.9-6.7a7.79,7.79,0,0,0-2.6-5.5,11,11,0,0,0-4.8-1.9A10.59,10.59,0,0,1,267.8,310.37Zm-.2,17.1a7.57,7.57,0,0,1-1.5-.1,5.23,5.23,0,0,1-3.9-2.3c-1.1-1.6-1.3-4.1-.5-6.9.5-2.1,1.3-4,4.1-4.7a6.2,6.2,0,0,1,2.3-.1,2.84,2.84,0,0,0,2.5-.6.45.45,0,0,1,.5,0c1.5.7,5,2.8,5.7,5.8a4.49,4.49,0,0,1-.9,3.8C273.8,325,271.4,327.47,267.6,327.47Zm-.5-13.2a4.48,4.48,0,0,0-1.1.1c-2.1.5-2.8,1.7-3.4,4-.7,2.5-.5,4.7.4,6.1a4.62,4.62,0,0,0,3.3,1.9c4,.6,6.4-1.4,8.8-4.6a3.42,3.42,0,0,0,.7-3c-.4-1.7-2.2-3.6-4.9-5a3.67,3.67,0,0,1-2.9.6A2.77,2.77,0,0,0,267.1,314.27Z"/><path class="cls-3" d="M243.8,310.37c1.1,2.2,3.2,3.3,3.8,6.1s-.8,6.1-2.7,8.2c-3.8,4.3-10.4,4.4-14.8,1.7s-5.3-7.9-2.8-12.5C230.2,308.67,238.8,309.47,243.8,310.37Zm-3.6,2.3c-.5,2.4-3.8.2-4.8.2a8.39,8.39,0,0,0-5.3,2.8c-2.1,3.6.8,8.6,4.7,9.2,3.3.5,7.5-1.3,9.1-4.3C245.5,317.37,244,313.17,240.2,312.67Z"/><path class="cls-3" d="M236.7,328.67a12.85,12.85,0,0,1-6.8-1.9c-4.4-2.7-5.7-8.2-2.9-13.1,3.1-5.5,12-4.7,17-3.7a.32.32,0,0,1,.3.3,11.22,11.22,0,0,0,1.6,2.2,8.19,8.19,0,0,1,2.2,4c.6,3.1-1,6.5-2.8,8.6A11.57,11.57,0,0,1,236.7,328.67Zm.4-18.5c-3.8,0-7.7.9-9.4,4-2.5,4.4-1.4,9.4,2.6,11.8s10.6,2.6,14.2-1.6c1.7-1.9,3.1-5.1,2.6-7.8a7.18,7.18,0,0,0-2-3.5,11.22,11.22,0,0,1-1.6-2.2A30.57,30.57,0,0,0,237.1,310.17Zm-1.2,15.2a3.75,3.75,0,0,1-1.1-.1,6.94,6.94,0,0,1-5.1-3.9,6.17,6.17,0,0,1,0-5.9c.8-1.3,4.2-3.1,5.8-3a4.6,4.6,0,0,1,1.3.4c.9.3,2,.8,2.6.5a.92.92,0,0,0,.4-.6c.1-.2.2-.4.5-.4a4.94,4.94,0,0,1,4,2.8,6.57,6.57,0,0,1,0,5.8C242.9,323.47,239.3,325.37,235.9,325.37Zm-.6-12a8.42,8.42,0,0,0-4.8,2.6,5.15,5.15,0,0,0,0,5.1,5.78,5.78,0,0,0,4.4,3.4c3.3.4,7.2-1.4,8.6-4.1a5.3,5.3,0,0,0,0-4.9,3.85,3.85,0,0,0-2.9-2.2c-.2.4-.4.7-.7.8-1,.5-2.3,0-3.4-.4a3.46,3.46,0,0,0-1.2-.3Z"/><path class="cls-3" d="M296.3,328.07c0-1.4-2.4-2.1-3.2-3.1a5.46,5.46,0,0,1-1.2-2.8,13.18,13.18,0,0,1,1.2-8.7c2.9-4.8,11.4-3.9,15.3-.8,3.7,3,3.1,9-.1,12C304.4,328.57,301.5,328.17,296.3,328.07Zm6.2-3.3c2.5-1.6,5.2-3.2,5-6.5-.2-3.9-3-4.3-6.3-4.2-3.1.1-5.9.2-6.3,4.6C294.3,323.37,298.8,325,302.5,324.77Z"/><path class="cls-3" d="M299.6,328.57a19.27,19.27,0,0,1-2.4-.1h-.9a.47.47,0,0,1-.5-.5c0-.6-.9-1.2-1.7-1.7a5.68,5.68,0,0,1-1.4-1.1,5.47,5.47,0,0,1-1.3-2.9,13,13,0,0,1,1.3-9.1,7.58,7.58,0,0,1,5.5-3.4,14.12,14.12,0,0,1,10.5,2.5,7.22,7.22,0,0,1,2.7,5.6,9.13,9.13,0,0,1-2.8,7.1C305.6,328.07,302.9,328.57,299.6,328.57Zm-2.9-1h.5c4.5.1,7.3.2,10.9-3.2a8.59,8.59,0,0,0,2.5-6.4,6.31,6.31,0,0,0-2.4-4.9,13.29,13.29,0,0,0-9.8-2.3,6.93,6.93,0,0,0-4.8,3,12.37,12.37,0,0,0-1.2,8.3,5.15,5.15,0,0,0,1.1,2.6,4.14,4.14,0,0,0,1.2.9C295.5,326.07,296.5,326.77,296.7,327.57Zm5.2-2.3a8.5,8.5,0,0,1-6.2-2.2,5.6,5.6,0,0,1-1.4-4.4c.5-4.9,3.9-5,6.8-5,3.2-.1,6.6.2,6.8,4.7.2,3.4-2.4,5-4.8,6.7l-.4.3a.35.35,0,0,0-.2.1A.73.73,0,0,0,301.9,325.27Zm0-10.7h-.8c-3.4.1-5.5.4-5.9,4.2a4.37,4.37,0,0,0,1.1,3.7c1.2,1.3,3.4,2,6,1.9l.3-.2c2.3-1.5,4.5-3,4.4-5.8C306.9,315.27,305.1,314.57,301.9,314.57Z"/><path class="cls-3" d="M86.2,408.87c-2.8-3.4-8.1-9-12.7-14.5C76.9,398.77,81,403.07,86.2,408.87Z"/><path class="cls-3" d="M73.4,394.27h0l.1.1Z"/><path class="cls-3" d="M88.8,421.47c1.4,1.2,3,2.7,4.6,4.1C91.8,424.27,90.3,422.87,88.8,421.47Z"/><path class="cls-3" d="M102.5,78.87l.6-.9a47.39,47.39,0,0,1,6.3-5.3c1.2-.8,1.7-1.1,2.2-1.5.9-.6,1.7-1.1,8.1-5.8,1.2-1,3.1-2.5,5.4-4.2s5.2-3.2,8-4.8c5.6-3.2,11.1-6.6,13.5-7.8.2-.1,1.7-.8,3.4-1.5a14.83,14.83,0,0,1,3.2-1.3c2.1-1.2,7.2-3.4,11.6-5.5,1.6-.8-1.2.5-2.4,1,3.3-1.8,7-2.7,10.4-4.1,4.2-1.4,5.2-1.6.7,0,3.5-1.1,8.5-3.2,15-5,3.3-.8,6.8-1.7,10.7-2.6s7.9-2.2,12.4-2.6c8.8-1.2,18.5-3,28.7-3.1,10.2-.9,20.9,0,31.6.5,5.3.5,10.6,1.5,15.8,2.2,2.6.4,5.2.7,7.8,1.2s5.1,1.2,7.6,1.9c5,1.3,9.9,2.3,14.6,3.7,4.6,1.6,9.1,3.2,13.3,4.7a218.1,218.1,0,0,1,36.6,17.6A168.37,168.37,0,0,0,352.4,47c1.9.9,3.6,1.6,5,2.3s2.6,1.5,3.6,2.2c2.1,1.3,3.8,2.3,5.4,3.1,1.3,1,5.2,3.3,9.5,5.9,4.1,2.8,8.3,6.1,10.8,8.1l2.1,1.3,3.3,2.6a71.45,71.45,0,0,1,8.4,7c2.1,1.9,3.6,3.2,4.7,4.2,2.3,2,2.9,2.6,3.5,3.2s1.1,1,2.9,2.7,4.6,5,10.1,11c6.6,6.8,10.5,12.5,14.1,17.2s6.6,8.5,9,13.2c-.8-1.3-2.8-5-.3-.8.3.8,6.7,11.1,7.8,13.3,2.4,4.1,8.6,18.3,6.7,13.4.6,1.4,2.2,5,3.3,7.5s1.5,3.9-.1.1c1.8,4.3,3,8.7,4.3,11.8l-1.9-5.7c2.5,7.5,4.8,13.1,6.1,18.4s2.4,9.8,3.7,14.8l-1.3-5.7c1,4.6,2.4,8.7,2.8,12.3s.8,6.5,1,8.3l-1.5-9.6c1.1,7.7,2,13.9,2.9,19.8.3,5.9.7,11.5,1,18l-.2-4.6c.1,2.1.3,5.3.5,9.2-.2,4-.4,8.8-.6,14.2-.1,2.7-.2,5.5-.4,8.4-.4,2.9-.8,5.9-1.2,8.9-.9,6.1-1.5,12.5-3.3,18.7-.7,3.1-1.5,6.3-2.2,9.3a62.52,62.52,0,0,1-2.5,9c-2,5.8-3.9,11.3-5.6,16.3-4.2,9.7-7.8,17.2-9.3,20.7l3.1-6.3a86.61,86.61,0,0,1-5.9,11.8c.8-1.3,2.7-5.8,3.2-7-1.4,3.3-4.4,7.7-7.8,13.6-1.8,2.9-3.5,6.2-5.8,9.5s-4.9,6.7-7.6,10.4c-1.3,1.8-2.7,3.7-4.1,5.6s-3.2,3.6-4.8,5.5c-3.3,3.7-6.7,7.5-10.2,11.3s-7.7,7.2-11.7,10.9c-2,1.8-4,3.6-6,5.5a80,80,0,0,1-6.5,5c-4.4,3.2-8.8,6.4-13.1,9.6-4.6,2.7-9.2,5.5-13.7,8.1-2.2,1.3-4.4,2.7-6.6,3.9s-4.6,2.1-6.8,3.1c-4.4,2.1-8.7,4-12.8,5.9-8.4,2.9-16,5.7-22.2,7.7-6.4,1.5-11.4,2.7-14.6,3.5-10.2,2.4-1.9.2-1.8.1-3.1.8-5,1.2-6.3,1.4l-2.5.4c-1.1.2-2,.4-7.4,1.1-2.9.4.6-.2,2.2-.5-4.7.7-9.1,1.3-9.4,1.4,5.9-.8,3.4-.2,6-.4a107.4,107.4,0,0,1-13.9,1.5l.6-.2c-1.5.1-3.6.3-6.8.5-1.7.1-3.7.2-6.1.4-1.2.1-2.6.1-4,.2-1.5-.1-3-.1-4.8-.2-23.3,0-48.4-5.1-70.4-12.7.4,0,5,1.6,9.7,3.2-2.9-1-7.3-2.6-10.2-3.6,5.3,2-9.3-3.1-5.1-1.6-2-.7-4.2-1.3-6.3-2.2s-4.2-1.9-6.3-2.9c-4.3-2-8.7-4-13-6-4.1-2.4-8.2-4.8-12.1-7.1s-7.6-4.2-10.6-6.5c-.8-.4-8.1-4-15.3-7.5-.9-.5-1.8-.9-2.7-1.4s-1.7-1-2.5-1.5c-1.6-1-3.1-1.9-4.4-2.7s-2.3-1.4-3.2-1.9-1.2-.7-1.3-.7c-3.6-3.2-7.1-6.4-8.2-7.5.9.9,7.9,7.3,11.6,10.6l.8.4c8.7,7.6,1.7,2.2,10.7,9,.2.2-1.8-1.2-4.8-3.3-2.8-2.3-6.4-5.7-9.8-8.7,3,2.8,6.1,5.6,8.7,7.9s5.1,3.8,6.5,4.8c6.2,4.7-.8-.3,6.7,5.3,5.2,4.2,13,8.3,19.5,12.3h-.1c7.8,5.1,14.6,7.5,20.8,10.5,3.2,1.3,6.2,3.1,9.6,4.1,3.4,1.2,7,2.5,11,3.9L174,474c2.8,1,7,2.7,11.9,4s10.4,2.6,15.7,3.9c-3-.8-5.6-1.5.8,0a46.73,46.73,0,0,0,8.5,1.6c2.7.4,5.2.8,7.5,1.1,4.8.6,9.1,1.6,13.7,1.7l8.7.3c2.7.1,5.9.3,9.6.5,3.6,0,7.7-.3,12.2-.5l7-.3a47.43,47.43,0,0,0,7.4-.7c5.1-.7,10.5-1.5,16.1-2.3a245.13,245.13,0,0,0,71.7-25.6c5.7-3.5,11.6-6.7,17.2-10.4q8.1-5.85,15.9-11.7c5.1-4,9.6-8.5,14.2-12.5,2.2-2.1,4.6-4,6.6-6.2s3.9-4.4,5.9-6.5c3.7-4.3,7.7-8.1,10.7-12.3s5.9-8.1,8.6-11.7c1.3-1.8,2.6-3.5,3.8-5.2,1-1.8,2-3.4,3-5,1.9-3.1,3.5-5.9,4.9-8.3l-.8,1.5c8.7-14.1,17-33.5,23.4-55.8,1.4-5.6,2.8-11.4,4.2-17.2.9-6,1.7-12,2.6-18.2.2-1.5.5-3.1.6-4.6l.2-4.7c.1-3.1.3-6.3.4-9.4s.4-6.3.3-9.5l-.5-9.5c-1.3-25.3-6.2-50.7-15-72.5-8.6-21.8-19-40.6-29.5-54.2-1.6-2.2-3.2-4.5-5-7-.9-1.2-1.8-2.5-2.7-3.7s-2.1-2.4-3.2-3.5c-4.3-4.7-8.5-9.5-12.2-13.6,4.1,4.6,2.6,3.1-.6-.4-12.4-11.4-12.9-11.7-13.4-12.1-.2-.2-.5-.4-2.3-2s-5.3-4.3-12.1-9.3c-4-2.8-9.1-7.1-16.1-10.8l-11-6.5a51.5,51.5,0,0,0-6.2-3.2c-2.2-1-4.4-2-6.7-3.1s-4.6-2.1-7-3.2c-1.2-.5-2.4-1.1-3.6-1.6s-2.5-.9-3.8-1.3c-5.1-1.8-10.3-3.6-15.7-5.5-5.4-1.7-11-2.8-16.7-4.3-2.8-.6-5.6-1.5-8.5-2l-8.7-1.3c-11.5-2.1-23.2-2.3-34.3-2.9-5.6.1-11,.5-16.3.7-2.6.2-5.3.1-7.8.5s-5,.7-7.4,1.1c-4.8.7-9.5,1.3-13.8,2-4.3,1-8.2,2-11.9,2.9s-7,1.7-9.9,2.4c-2.9.9-5.3,1.8-7.4,2.5-4.4,1.6-9.1,3.3-13.9,5-4.7,2-9.4,4.3-14.1,6.5-2.4,1.1-4.7,2.2-7.1,3.3l-6.6,3.9c-4.3,2.6-8.5,5.1-12.5,7.4l1.6-1c-2.2,1.1-5.3,3.5-9.3,6.4s-9,6.3-14.2,10.7c-5,4.5-10.6,9.6-16.4,14.9-5.3,5.9-10.9,11.9-16.3,18.1-4.9,6.7-10,13.3-14.4,19.9-4,6.9-8.1,13.4-11.4,19.5-2.9,6.3-5.6,12-7.8,16.8a40.67,40.67,0,0,0-2.6,6.6c-.7,2-1.3,3.6-1.7,5l1-2.9c-3.2,9.4-4.8,13.4-5.9,17-.9,3.7-1.8,6.9-3.7,14.4.4-1-.5,2.7-1.4,7.4-.7,4.8-1.4,10.6-1.9,13.8V221c-.3,2.4-.9,5.6-1.1,9.3s-.3,7.9-.5,12.3c-.7,8.8.3,18.4.6,26.4l-.2-.6c.1,1.7.2,3.6.3,5.6q.45,3,.9,6.3c.6,4.4,1.3,9.1,2,13.6,1.8,9.1,4.1,17.5,5.2,22.2,3.3,10.5,7.6,24,14.3,37.5,2.8,7,7.1,13.5,11,20.2,3.7,6.8,8.6,12.8,12.9,18.8,1.9,2.6,3.6,5.3,5.6,7.8l6.3,7.3,1.9,2.1s6.1,4.9,9,5.9,2.5-1.6-9.8-16.1l.5.4a66.83,66.83,0,0,1-4.9-5.7c-5.3-7.3-7.9-10.6-7.4-10.2l7.3,10c-5.4-7.4-1.5-2.3.6.5-2.2-3.1-4.4-6-6.2-8.5-1.1-1.4.7,1.1,1.5,2.3-1.5-1.9-3.2-4.3-5.1-6.7a53.87,53.87,0,0,1-5.2-7.6c-4.7-8-.1-.6-5.6-10a228.84,228.84,0,0,1-23.2-164.8c.4-1.3,0,.3-.4,1.9,1-4.2,2-8.3,3-12.4s2.6-7.8,3.8-11.6,2.6-7.5,3.9-11.3c1.7-3.6,3.3-7.2,5-10.8,1.9-4,2.5-5,3.1-6.2a27.25,27.25,0,0,1,1.2-2.8c1-2,2.8-4.8,4.8-8.3s4.4-7.7,7.2-12.1c3.1-4.2,6.4-8.7,9.7-13.2,3.1-4.7,7.1-8.7,10.6-12.7S88,92,91.1,89.07C97.8,83.07,102.2,79.07,102.5,78.87Z"/><path class="cls-3" d="M98.6,251.17l-42.2-7.3a2.7,2.7,0,0,1-2.1-1.9,7.94,7.94,0,0,1-.2-3.8,7.39,7.39,0,0,1,1.4-3.5,2.56,2.56,0,0,1,2.6-1.1l36.3,6.3,2.6-15.1a2.63,2.63,0,0,1,1.7-2,5.25,5.25,0,0,1,3.3-.2,6.37,6.37,0,0,1,3,1.3,2.36,2.36,0,0,1,.9,2.4l-3.6,21a5.61,5.61,0,0,1-1.4,3A2.32,2.32,0,0,1,98.6,251.17Z"/><path class="cls-3" d="M106.7,215l-40-15.2a2.64,2.64,0,0,1-1.7-2.3,7.05,7.05,0,0,1,.6-3.7,8.12,8.12,0,0,1,2.1-3.2,2.51,2.51,0,0,1,2.8-.6l40,15.2a2.64,2.64,0,0,1,1.7,2.3,7.43,7.43,0,0,1-.5,3.8,8.12,8.12,0,0,1-2.1,3.2A3.42,3.42,0,0,1,106.7,215Z"/><path class="cls-3" d="M114.6,194.57l-36-23.1a2.71,2.71,0,0,1-1.3-2.4,6.64,6.64,0,0,1,1-3.2l7.4-11.6c4.8-7.6,10.6-9.2,17.4-4.9,4.5,2.9,6.5,6.4,5.8,10.5a10.63,10.63,0,0,1,5.9-2.4q3-.15,6.9,2.4l1.2.8c4.2,2.7,6.7,5.7,7.3,9s-.2,6.7-2.4,10.2l-8.1,12.6a5.59,5.59,0,0,1-2.6,2.3A2.75,2.75,0,0,1,114.6,194.57ZM97.1,171l3.8-6a3.19,3.19,0,0,0,.4-3.1,5,5,0,0,0-2.2-2.6,5.19,5.19,0,0,0-3.3-.9,3.38,3.38,0,0,0-2.7,1.6l-3.8,5.9Zm18.1,11.6,3.6-5.7c1.9-3,1.2-5.6-2.3-7.9l-.9-.6q-5.25-3.3-8.1,1.2l-3.6,5.7Z"/><path class="cls-3" d="M133.6,158a6.22,6.22,0,0,1-1.5-3.7,3.78,3.78,0,0,1,1.1-3.5,3.44,3.44,0,0,1,2.2-.9,14.15,14.15,0,0,1,2.9-.2,11.62,11.62,0,0,0,3.4-.6,8.43,8.43,0,0,0,3.5-2.1,8.66,8.66,0,0,0,2.6-3.9,3.57,3.57,0,0,0-.8-3.8,4.66,4.66,0,0,0-4.2-1.4,31.06,31.06,0,0,0-6,1.3c-2.2.7-4.4,1.4-6.7,1.9a14.62,14.62,0,0,1-7.2,0,12.94,12.94,0,0,1-6.7-4.1c-3.2-3.5-4.4-7.3-3.4-11.3a20.72,20.72,0,0,1,6.6-10.8,22.57,22.57,0,0,1,2.9-2.3,29.9,29.9,0,0,1,3.7-2.3,8.4,8.4,0,0,1,4.2-1.2,4.45,4.45,0,0,1,3.3,1.3,7.2,7.2,0,0,1,1.7,3.5,3.44,3.44,0,0,1-1,3.5,10.72,10.72,0,0,1-3.4,1.4,11.89,11.89,0,0,0-5.1,2.9,8.2,8.2,0,0,0-2.9,4.3,3.24,3.24,0,0,0,.7,3.2,3.48,3.48,0,0,0,3.1,1,15.36,15.36,0,0,0,4.4-1,49.51,49.51,0,0,1,5.4-1.7,43.45,43.45,0,0,1,5.9-1.1,14,14,0,0,1,6.2.9,14.66,14.66,0,0,1,5.9,4.2c3.1,3.4,4.4,7.1,3.8,11.1s-2.7,7.7-6.4,11.1a23.77,23.77,0,0,1-10.2,5.7C137.7,160.07,135.1,159.67,133.6,158Z"/><path class="cls-3" d="M162.8,123.47l-13.7-27.3a2.45,2.45,0,0,1,.3-2.8,9.32,9.32,0,0,1,3-2.4,7.47,7.47,0,0,1,3.7-.9,2.55,2.55,0,0,1,2.4,1.4l13.7,27.3c2,4,5,5,8.8,3.1s4.8-4.9,2.7-8.9L170,85.67a2.44,2.44,0,0,1,.3-2.8,9.32,9.32,0,0,1,3-2.4,7.47,7.47,0,0,1,3.7-.9,2.39,2.39,0,0,1,2.4,1.4l13.7,27.3c2.5,4.9,2.9,9.2,1.3,12.8s-4.7,6.7-9.3,9-8.9,3-12.8,2.1S165.3,128.37,162.8,123.47Z"/><path class="cls-3" d="M208.7,115.77l-7.4-42.2a2.61,2.61,0,0,1,.9-2.6,6,6,0,0,1,3-1.4l13.6-2.4c8.8-1.6,14,1.6,15.3,9.5.9,5.3-.3,9.1-3.8,11.4a10.18,10.18,0,0,1,5.7,2.7c1.4,1.4,2.4,3.6,3,6.7l.2,1.4c.9,4.9.3,8.8-1.7,11.5s-5,4.4-9.1,5.1l-14.7,2.6a6.12,6.12,0,0,1-3.4-.3A2.46,2.46,0,0,1,208.7,115.77Zm5.4-28.9,7-1.2a3.1,3.1,0,0,0,2.5-1.9,5.57,5.57,0,0,0,.4-3.4,5.19,5.19,0,0,0-1.6-3.1,3.25,3.25,0,0,0-3-.9l-7,1.2Zm3.8,21.2,6.6-1.2c3.5-.6,4.9-3,4.2-7l-.2-1.1c-.7-4.1-2.8-5.8-6.4-5.2l-6.6,1.2Z"/><path class="cls-3" d="M250.2,109l4.5-40.5a5,5,0,0,1,1.9-3.8,6.3,6.3,0,0,1,3.9-.9,9.55,9.55,0,0,1,4.5,1.4c1,.7,2,2.3,3,4.7l5.5,12.8,8.2-11.3a11.76,11.76,0,0,1,4-3.9,9.57,9.57,0,0,1,4.7-.4,5.57,5.57,0,0,1,3.6,1.7,4.94,4.94,0,0,1,1.1,4.1l-4.5,40.5a2.55,2.55,0,0,1-1.8,2.2,7.71,7.71,0,0,1-3.8.4,9,9,0,0,1-3.6-1.2,2.58,2.58,0,0,1-1.3-2.5l2.8-25.1-7.7,10.2a3.7,3.7,0,0,1-3.7,1.5,3.59,3.59,0,0,1-3.1-2.3l-5-12.4-2.8,25.9a2.55,2.55,0,0,1-1.8,2.2,7.71,7.71,0,0,1-3.8.4,9.56,9.56,0,0,1-3.6-1.2A2.49,2.49,0,0,1,250.2,109Z"/><path class="cls-3" d="M298,114.47a5.92,5.92,0,0,0,.4-.6l28.1-32.5a4.58,4.58,0,0,1,3.3-1.4,10.38,10.38,0,0,1,4.4,1,11.19,11.19,0,0,1,3.7,2.6,4.61,4.61,0,0,1,1.2,3.4l-5.1,42.6c-.1.4-.1.6-.2.7-.5,1.1-1.5,1.7-3.2,1.9a8.36,8.36,0,0,1-4.7-.7c-1.8-.8-2.5-1.8-2.3-3.2l1.3-8.6-13-5.7-5.5,6.8c-.9,1-2.2,1.2-3.9.4a8.56,8.56,0,0,1-3.6-3A3.7,3.7,0,0,1,298,114.47Zm19.1-7,9,4L328.9,93Z"/><path class="cls-3" d="M339.5,135.67l27.3-32.9a2.92,2.92,0,0,1,2.1-1.1,3.19,3.19,0,0,1,2.4.8l10.7,8.9c8.5,7,9.7,14.3,3.5,21.7-4.5,5.4-9.5,7.2-15,5.3l-3.2,16.7a1.61,1.61,0,0,1-.5,1.1,4.92,4.92,0,0,1-4,1.5,7.07,7.07,0,0,1-4.6-1.5,3.37,3.37,0,0,1-1.3-3.7l4.3-19.7-3.4-2.8-10.2,12.4a2.71,2.71,0,0,1-2.7.9,7.29,7.29,0,0,1-3.4-1.7,7.14,7.14,0,0,1-2.3-3A2.54,2.54,0,0,1,339.5,135.67Zm23.6-12,5.1,4.3a6.17,6.17,0,0,0,4.4,1.8c1.4-.1,2.8-1,4.3-2.7s2.1-3.3,1.9-4.7a6.58,6.58,0,0,0-2.5-4l-5.1-4.3Z"/><path class="cls-3" d="M371.2,165.07l33.6-26.5a2.55,2.55,0,0,1,2.8-.2,8.1,8.1,0,0,1,2.9,2.4,9.05,9.05,0,0,1,1.7,3.4,2.71,2.71,0,0,1-.9,2.7l-33.6,26.5a2.79,2.79,0,0,1-2.8.3,8.39,8.39,0,0,1-3-2.4,7.52,7.52,0,0,1-1.6-3.4A2.67,2.67,0,0,1,371.2,165.07Z"/><path class="cls-3" d="M384.8,182.07l38.5-18.5a2.65,2.65,0,0,1,2.8.4,8.17,8.17,0,0,1,2.4,3,8.82,8.82,0,0,1,1.2,4.4c-.1,1.1-.9,2.7-2.5,4.8l-14,18.9,20.6-9.9a2.65,2.65,0,0,1,2.8.4,8,8,0,0,1,2.3,3,8.73,8.73,0,0,1,.9,3.7,2.33,2.33,0,0,1-1.5,2.4l-38.6,18.4a2.65,2.65,0,0,1-2.8-.4,8.17,8.17,0,0,1-2.4-3c-1.2-2.6-1.2-4.8,0-6.5l15.4-21.6-20.6,9.9a2.65,2.65,0,0,1-2.8-.4,8.17,8.17,0,0,1-2.4-3,7.31,7.31,0,0,1-.8-3.7A2.84,2.84,0,0,1,384.8,182.07Z"/><path class="cls-3" d="M402.7,223.47l42.1-7.4a2.61,2.61,0,0,1,2.6.9,6,6,0,0,1,1.4,3l4.2,23.6a2.61,2.61,0,0,1-.9,2.6,5.88,5.88,0,0,1-3,1.3,6.32,6.32,0,0,1-3.4-.3,2.46,2.46,0,0,1-1.7-2.1l-3.1-17.8-11.2,2,1.8,9.9a2.6,2.6,0,0,1-.8,2.5A4.91,4.91,0,0,1,428,243a4.78,4.78,0,0,1-2.9-.3,2.7,2.7,0,0,1-1.6-2.1l-1.8-9.9-11.3,2,3.1,17.8a2.45,2.45,0,0,1-.9,2.5,5.94,5.94,0,0,1-3.1,1.4,7.21,7.21,0,0,1-3.3-.2,2.46,2.46,0,0,1-1.7-2.1l-4.2-23.6a6.05,6.05,0,0,1,.3-3.3A2.81,2.81,0,0,1,402.7,223.47Z"/></g></g></svg>